<svg width="249" height="251" viewBox="0 0 249 251" fill="none" xmlns="http://www.w3.org/2000/svg">
<g clip-path="url(#clip0_168_2347)">
<path d="M62.8109 240.862C62.5361 240.875 62.2642 240.803 62.0318 240.656C61.7994 240.509 61.6178 240.293 61.5117 240.039C61.4056 239.786 61.3801 239.505 61.4386 239.236C61.4971 238.967 61.6368 238.723 61.8387 238.536C61.8726 238.402 61.8968 238.305 61.9306 238.17C61.6677 237.502 61.2113 236.928 60.6199 236.521C60.0285 236.113 59.3291 235.892 58.6112 235.886C57.8934 235.879 57.19 236.087 56.591 236.482C55.992 236.878 55.5249 237.444 55.2494 238.107C53.6596 241.831 51.602 245.685 52.6253 249.786C45.8664 235.453 48.1649 217.624 58.1537 205.367C60.9147 203.845 63.1526 201.141 63.7352 198.001C62.3687 198.465 60.665 197.353 61.6924 195.912C62.1377 195.362 62.5874 194.816 63.0327 194.265C57.842 188.734 51.6574 197.427 57.3708 204.893C55.5018 207.238 53.8829 209.771 52.5405 212.453C52.8505 209.605 52.4805 206.725 51.4609 204.049C50.4275 201.554 48.4906 199.454 46.785 197.297C44.7112 194.67 40.443 195.882 40.1639 199.216C42.0778 199.846 42.3264 202.612 40.1372 202.99C40.7106 209.193 44.7605 214.893 50.3384 217.614C48.2786 223.397 47.4742 229.553 47.979 235.671C46.9944 228.521 39.3231 226.785 33.9613 223.943C33.62 223.724 33.2224 223.609 32.817 223.613C32.4116 223.616 32.0159 223.737 31.6782 223.961C31.3405 224.186 31.0754 224.504 30.9151 224.876C30.7549 225.249 30.7066 225.66 30.7759 226.06C31.516 226.361 32.2243 226.735 32.8905 227.176C33.2026 227.386 33.4422 227.688 33.5764 228.039C33.7107 228.391 33.7329 228.775 33.6401 229.14C33.5474 229.505 33.3441 229.832 33.0583 230.077C32.7724 230.321 32.4179 230.471 32.0434 230.507C34.7462 237.2 41.7338 241.694 48.9106 241.669C49.6002 244.667 50.5995 247.586 51.8923 250.378H62.544C62.5822 250.26 62.6165 250.138 62.6509 250.019C61.665 250.081 60.6751 250.022 59.7035 249.844C62.312 246.753 64.3294 245.177 62.8112 240.863L62.8109 240.862Z" fill="#F2F2F2"/>
<path d="M157.774 240.862C158.049 240.875 158.321 240.803 158.553 240.656C158.785 240.509 158.967 240.293 159.073 240.039C159.179 239.786 159.205 239.505 159.146 239.236C159.088 238.967 158.948 238.723 158.746 238.536C158.712 238.402 158.688 238.305 158.654 238.17C158.917 237.502 159.373 236.928 159.965 236.521C160.556 236.113 161.256 235.892 161.974 235.886C162.691 235.879 163.395 236.087 163.994 236.482C164.593 236.878 165.06 237.444 165.335 238.107C166.925 241.831 168.983 245.685 167.959 249.786C174.718 235.453 172.42 217.624 162.431 205.367C159.67 203.845 157.432 201.141 156.85 198.001C158.216 198.465 159.92 197.353 158.892 195.912C158.447 195.362 157.997 194.816 157.552 194.265C162.743 188.734 168.927 197.427 163.214 204.893C165.083 207.238 166.702 209.771 168.044 212.453C167.734 209.605 168.104 206.725 169.124 204.049C170.157 201.554 172.094 199.454 173.8 197.297C175.874 194.67 180.142 195.882 180.421 199.216C178.507 199.846 178.258 202.612 180.448 202.99C179.874 209.193 175.824 214.893 170.246 217.614C172.306 223.397 173.111 229.553 172.606 235.671C173.59 228.521 181.262 226.785 186.624 223.943C186.965 223.724 187.362 223.609 187.768 223.613C188.173 223.616 188.569 223.737 188.907 223.961C189.244 224.186 189.509 224.504 189.67 224.876C189.83 225.249 189.878 225.66 189.809 226.06C189.069 226.361 188.36 226.735 187.694 227.176C187.382 227.386 187.143 227.688 187.008 228.039C186.874 228.391 186.852 228.775 186.945 229.14C187.037 229.505 187.241 229.832 187.527 230.077C187.812 230.321 188.167 230.471 188.541 230.507C185.839 237.2 178.851 241.694 171.674 241.669C170.985 244.667 169.985 247.586 168.692 250.378H158.041C158.003 250.26 157.968 250.138 157.934 250.019C158.92 250.081 159.91 250.022 160.881 249.844C158.273 246.753 156.255 245.177 157.774 240.863L157.774 240.862Z" fill="#F2F2F2"/>
<path d="M161.723 242.445L157.136 243.489L150.927 226.282L157.697 224.741L161.723 242.445Z" fill="#FFB6B6"/>
<path d="M162.974 247.196L148.867 250.408L148.827 250.229C148.496 248.772 148.756 247.243 149.552 245.978C150.347 244.714 151.612 243.817 153.068 243.485L153.068 243.485L155.2 240.942L160.452 241.804L161.684 241.524L162.974 247.196Z" fill="#2F2E41"/>
<path d="M235.722 158.571L238.243 162.545L224.125 174.17L220.403 168.304L235.722 158.571Z" fill="#FFB6B6"/>
<path d="M239.776 155.799L247.532 168.018L247.377 168.117C246.116 168.918 244.589 169.185 243.132 168.859C241.674 168.534 240.406 167.642 239.605 166.381L239.605 166.381L236.496 165.224L235.545 159.984L234.868 158.917L239.776 155.799Z" fill="#2F2E41"/>
<path d="M89.4982 116.088L88.3652 109.517L105.59 101.734L109.31 95.1442C109.19 94.5659 109.232 93.9657 109.431 93.4098C109.631 92.8539 109.98 92.3639 110.44 91.9941C110.9 91.6242 111.454 91.3889 112.039 91.314C112.625 91.2391 113.219 91.3276 113.758 91.5697C114.296 91.8118 114.757 92.1981 115.09 92.6859C115.423 93.1738 115.614 93.7441 115.643 94.334C115.673 94.924 115.538 95.5104 115.255 96.0287C114.972 96.547 114.551 96.9769 114.039 97.271L107.92 106.737L89.4982 116.088Z" fill="#A0616A"/>
<path d="M84.2627 110.716L92.0195 106.751L94.0729 114.466L88.685 118.462L84.2627 110.716Z" fill="#A2D173"/>
<path d="M66.8566 241.847L71.5465 241.847L73.7777 223.746L66.8555 223.746L66.8566 241.847Z" fill="#A0616A"/>
<path d="M73.1072 242.27V239.088L71.8742 239.164L66.8551 239.461L65.6934 239.533L64.8054 250.188L64.7578 250.759H68.088L68.1951 250.192L68.6788 247.613L69.9276 250.192L70.2012 250.759H79.0303C79.5557 250.756 80.0586 250.545 80.4297 250.173C80.8008 249.801 81.0103 249.297 81.0126 248.772C81.3853 247.03 74.0428 243.266 73.1072 242.27Z" fill="#2F2E41"/>
<path d="M11.1832 170.011L10.0898 174.575L27.1616 180.966L28.7751 174.231L11.1832 170.011Z" fill="#A0616A"/>
<path d="M9.68639 175.995L12.7784 176.736L12.9926 175.519L13.8737 170.566L14.0752 169.419L3.92687 166.071L3.38279 165.891L2.60631 169.131L3.13266 169.368L5.52583 170.44L2.7287 171.054L2.11361 171.188L0.055016 179.778C-0.0642503 180.29 0.0231482 180.829 0.29825 181.277C0.573352 181.725 1.01393 182.046 1.52432 182.171C3.12991 182.939 8.50056 176.673 9.68639 175.995Z" fill="#2F2E41"/>
<path d="M74.1081 124.697L68.0712 121.874L56.0323 136.451L48.6993 138.307C48.1734 138.039 47.5836 137.921 46.9952 137.967C46.4067 138.013 45.8424 138.221 45.3646 138.568C44.8869 138.915 44.5142 139.387 44.2878 139.933C44.0614 140.478 43.9901 141.076 44.0818 141.659C44.1735 142.243 44.4246 142.789 44.8073 143.239C45.19 143.689 45.6895 144.024 46.2506 144.207C46.8117 144.391 47.4125 144.415 47.9868 144.279C48.561 144.142 49.0863 143.849 49.5046 143.432L60.2425 140.018L74.1081 124.697Z" fill="#A0616A"/>
<path d="M159.695 70.7323C158.415 70.7323 157.164 70.3526 156.1 69.6413C155.036 68.9299 154.207 67.9188 153.717 66.7359C153.227 65.553 153.099 64.2513 153.349 62.9955C153.599 61.7397 154.215 60.5862 155.12 59.6808C156.024 58.7754 157.177 58.1589 158.432 57.9091C159.687 57.6593 160.988 57.7875 162.171 58.2775C163.353 58.7675 164.363 59.5972 165.074 60.6618C165.785 61.7264 166.165 62.9781 166.165 64.2585C166.163 65.9748 165.48 67.6204 164.267 68.834C163.055 70.0477 161.41 70.7304 159.695 70.7323ZM159.695 58.5276C158.562 58.5276 157.454 58.8637 156.513 59.4934C155.571 60.1232 154.837 61.0182 154.403 62.0654C153.97 63.1125 153.856 64.2648 154.077 65.3765C154.298 66.4882 154.844 67.5094 155.645 68.3108C156.446 69.1123 157.466 69.6581 158.577 69.8792C159.688 70.1004 160.84 69.9869 161.886 69.5531C162.933 69.1194 163.827 68.3848 164.457 67.4424C165.086 66.4999 165.422 65.3919 165.422 64.2585C165.42 62.7391 164.816 61.2824 163.743 60.208C162.669 59.1337 161.213 58.5293 159.695 58.5276Z" fill="#E6E6E6"/>
<path d="M159.239 66.6973C159.226 66.6973 159.213 66.6969 159.2 66.6963C159.085 66.6907 158.972 66.6604 158.87 66.6073C158.768 66.5543 158.679 66.4798 158.608 66.3889L157.589 65.0778C157.525 64.9951 157.477 64.9004 157.45 64.7993C157.422 64.6982 157.414 64.5926 157.427 64.4886C157.44 64.3845 157.473 64.2841 157.525 64.1929C157.577 64.1017 157.646 64.0217 157.729 63.9573L157.766 63.9288C157.848 63.8643 157.943 63.8168 158.044 63.789C158.145 63.7612 158.251 63.7535 158.355 63.7665C158.459 63.7795 158.559 63.8129 158.65 63.8648C158.741 63.9167 158.821 63.986 158.886 64.0688C158.937 64.135 159.002 64.1892 159.077 64.2278C159.151 64.2664 159.233 64.2885 159.317 64.2926C159.4 64.2967 159.484 64.2826 159.562 64.2514C159.639 64.2202 159.709 64.1726 159.767 64.1118L161.836 61.9258C161.982 61.7723 162.183 61.6828 162.394 61.6771C162.606 61.6713 162.811 61.7497 162.965 61.8951L162.999 61.9275C163.075 61.9996 163.136 62.086 163.178 62.1817C163.221 62.2775 163.245 62.3807 163.247 62.4855C163.25 62.5903 163.232 62.6947 163.195 62.7926C163.157 62.8905 163.101 62.9801 163.029 63.0562L159.818 66.4479C159.743 66.5267 159.653 66.5895 159.554 66.6323C159.454 66.6752 159.347 66.6973 159.239 66.6973Z" fill="#E6E6E6"/>
<path d="M127.397 149.112C126.117 149.112 124.866 148.732 123.802 148.021C122.738 147.309 121.909 146.298 121.419 145.115C120.93 143.932 120.801 142.631 121.051 141.375C121.301 140.119 121.917 138.966 122.822 138.06C123.727 137.155 124.879 136.538 126.135 136.288C127.39 136.039 128.69 136.167 129.873 136.657C131.055 137.147 132.065 137.977 132.776 139.041C133.487 140.106 133.867 141.357 133.867 142.638C133.865 144.354 133.183 146 131.97 147.213C130.757 148.427 129.112 149.11 127.397 149.112ZM127.397 136.907C126.264 136.907 125.157 137.243 124.215 137.873C123.273 138.503 122.539 139.398 122.105 140.445C121.672 141.492 121.558 142.644 121.779 143.756C122 144.868 122.546 145.889 123.347 146.69C124.148 147.492 125.168 148.038 126.279 148.259C127.39 148.48 128.542 148.366 129.589 147.933C130.635 147.499 131.53 146.764 132.159 145.822C132.788 144.879 133.124 143.771 133.124 142.638C133.123 141.118 132.519 139.662 131.445 138.587C130.371 137.513 128.915 136.909 127.397 136.907Z" fill="#E6E6E6"/>
<path d="M126.94 145.077C126.927 145.077 126.914 145.076 126.901 145.076C126.786 145.07 126.674 145.04 126.571 144.987C126.469 144.934 126.38 144.859 126.309 144.768L125.29 143.457C125.226 143.374 125.178 143.28 125.151 143.179C125.123 143.078 125.115 142.972 125.128 142.868C125.141 142.764 125.175 142.663 125.226 142.572C125.278 142.481 125.347 142.401 125.43 142.337L125.467 142.308C125.55 142.244 125.644 142.196 125.745 142.168C125.846 142.141 125.952 142.133 126.056 142.146C126.16 142.159 126.26 142.192 126.351 142.244C126.443 142.296 126.523 142.365 126.587 142.448C126.638 142.514 126.703 142.569 126.778 142.607C126.852 142.646 126.934 142.668 127.018 142.672C127.101 142.676 127.185 142.662 127.263 142.631C127.34 142.6 127.411 142.552 127.468 142.491L129.538 140.305C129.683 140.152 129.884 140.062 130.095 140.056C130.307 140.051 130.512 140.129 130.666 140.274L130.7 140.307C130.776 140.379 130.837 140.465 130.88 140.561C130.922 140.657 130.946 140.76 130.949 140.865C130.951 140.97 130.934 141.074 130.896 141.172C130.859 141.27 130.802 141.36 130.73 141.436L127.519 144.827C127.444 144.906 127.354 144.969 127.255 145.012C127.155 145.055 127.048 145.077 126.94 145.077Z" fill="#E6E6E6"/>
<path d="M56.4885 61.8173C55.2089 61.8173 53.958 61.4376 52.894 60.7262C51.83 60.0149 51.0008 59.0038 50.5111 57.8209C50.0214 56.6379 49.8932 55.3363 50.1429 54.0805C50.3925 52.8247 51.0087 51.6711 51.9136 50.7658C52.8184 49.8604 53.9713 49.2438 55.2263 48.994C56.4814 48.7442 57.7823 48.8724 58.9645 49.3624C60.1467 49.8524 61.1572 50.6822 61.8682 51.7468C62.5791 52.8114 62.9586 54.063 62.9586 55.3434C62.9566 57.0598 62.2744 58.7053 61.0614 59.919C59.8485 61.1327 58.2039 61.8153 56.4885 61.8173ZM56.4885 49.6126C55.3558 49.6126 54.2484 49.9487 53.3065 50.5784C52.3646 51.2081 51.6305 52.1032 51.197 53.1503C50.7635 54.1975 50.6501 55.3498 50.8711 56.4615C51.0921 57.5732 51.6376 58.5943 52.4386 59.3958C53.2396 60.1973 54.2601 60.7431 55.3712 60.9642C56.4822 61.1853 57.6338 61.0718 58.6804 60.6381C59.7269 60.2043 60.6215 59.4698 61.2508 58.5273C61.8801 57.5849 62.2161 56.4769 62.2161 55.3434C62.2143 53.824 61.6103 52.3674 60.5366 51.293C59.4629 50.2186 58.007 49.6143 56.4885 49.6126Z" fill="#E6E6E6"/>
<path d="M56.0315 57.7823C56.0185 57.7823 56.0055 57.7819 55.9925 57.7812C55.8776 57.7757 55.7653 57.7453 55.6633 57.6923C55.5612 57.6392 55.4719 57.5647 55.4013 57.4739L54.3821 56.1628C54.3177 56.08 54.2703 55.9854 54.2425 55.8843C54.2147 55.7832 54.207 55.6776 54.22 55.5735C54.233 55.4695 54.2664 55.369 54.3182 55.2779C54.37 55.1867 54.4392 55.1067 54.5219 55.0423L54.5586 55.0137C54.6413 54.9493 54.7359 54.9018 54.837 54.8739C54.938 54.8461 55.0436 54.8385 55.1476 54.8515C55.2517 54.8645 55.3521 54.8979 55.4432 54.9498C55.5343 55.0016 55.6143 55.0709 55.6787 55.1538C55.7301 55.2199 55.7953 55.2741 55.8696 55.3128C55.944 55.3514 56.0258 55.3735 56.1095 55.3776C56.1932 55.3816 56.2768 55.3676 56.3545 55.3364C56.4323 55.3052 56.5024 55.2575 56.56 55.1967L58.6294 53.0107C58.7751 52.8572 58.9757 52.7678 59.1872 52.762C59.3986 52.7563 59.6038 52.8347 59.7576 52.98L59.7915 53.0124C59.8676 53.0845 59.9288 53.1709 59.9715 53.2667C60.0142 53.3624 60.0376 53.4657 60.0405 53.5705C60.0433 53.6753 60.0254 53.7797 59.988 53.8776C59.9505 53.9755 59.8941 54.0651 59.822 54.1412L56.6105 57.5329C56.536 57.6117 56.4463 57.6744 56.3467 57.7173C56.2471 57.7602 56.1399 57.7823 56.0315 57.7823Z" fill="#E6E6E6"/>
<path d="M108.287 173.182C93.2842 173.182 76.0419 156.523 60.7867 164.438C14.598 188.403 20.9562 148.302 7.68652 133.388L8.12217 132.514C22.7637 145.65 41.0441 156.338 60.9873 163.421C79.0097 169.823 97.1672 172.79 113.49 172.007L113.519 173.058C111.795 173.141 110.051 173.182 108.287 173.182Z" fill="#F2F2F2"/>
<path d="M87.7064 60.5503C89.4384 60.5503 90.8424 58.6664 90.8424 56.3425C90.8424 54.0186 89.4384 52.1348 87.7064 52.1348C85.9744 52.1348 84.5703 54.0186 84.5703 56.3425C84.5703 58.6664 85.9744 60.5503 87.7064 60.5503Z" fill="#E6E6E6"/>
<path d="M123.928 126.192C122.495 127.148 121.027 124.873 122.489 123.959C123.922 123.004 125.39 125.279 123.928 126.192Z" fill="#E6E6E6"/>
<path d="M115.676 49.6019C117.931 49.6019 119.759 47.7725 119.759 45.5158C119.759 43.2591 117.931 41.4297 115.676 41.4297C113.42 41.4297 111.592 43.2591 111.592 45.5158C111.592 47.7725 113.42 49.6019 115.676 49.6019Z" fill="#FF6584"/>
<path opacity="0.3" d="M129.959 67.9073L153.196 0L127.68 67.0944C127.554 67.2536 127.467 67.4407 127.428 67.6401C127.388 67.8394 127.397 68.0453 127.453 68.2407C127.509 68.4361 127.61 68.6153 127.749 68.7635C127.888 68.9117 128.061 69.0246 128.252 69.0929C128.443 69.1611 128.648 69.1828 128.849 69.156C129.051 69.1292 129.243 69.0547 129.41 68.9388C129.577 68.8229 129.713 68.6689 129.809 68.4895C129.904 68.3101 129.956 68.1105 129.959 67.9073H129.959Z" fill="#F0F0F0"/>
<path d="M106.503 150.638C108.698 150.638 110.477 148.858 110.477 146.663C110.477 144.467 108.698 142.687 106.503 142.687C104.309 142.687 102.53 144.467 102.53 146.663C102.53 148.858 104.309 150.638 106.503 150.638Z" fill="#F2F2F2"/>
<path d="M68.0216 148.179C68.0216 148.179 58.1165 154.633 60.7356 158.921C60.826 159.069 48.9041 174.824 48.9041 174.824L26.3984 173.395L25.6055 180.932L45.6416 186.738C45.6416 186.738 50.5433 190.341 54.3299 186.371C58.1165 182.401 70.7294 170.244 70.7294 170.244L71.3378 194.789L65.0062 228.802L74.46 228.202L83.6615 194.079L87.0579 155.426L68.0216 148.179Z" fill="#2F2E41"/>
<path d="M75.0772 109.447L70.912 112.605L66.1644 122.744L70.7296 128.948C70.7296 128.948 74.5697 135.607 68.4231 142.056C62.2764 148.505 57.5564 155.393 62.4762 155.147C67.396 154.901 87.3219 165.041 87.453 156.733C87.5841 148.425 87.8495 142.056 87.8495 142.056L93.0736 128.798C93.0736 128.798 96.186 120.889 94.0008 118.521C91.8156 116.154 88.8898 113.129 88.8898 113.129L83.569 107.805H78.7647L75.0772 109.447Z" fill="#A2D173"/>
<path d="M82.8524 89.9667C92.1969 95.2872 84.5255 109.325 75.0069 104.326C65.6627 99.0061 73.3341 84.968 82.8524 89.9667Z" fill="#A0616A"/>
<path d="M87.8494 92.9166C87.1946 93.7687 85.8267 93.3691 83.1478 93.9771C83.1537 93.0686 83.0488 92.1627 82.8354 91.2796C82.6361 92.373 82.1993 93.4094 81.5559 94.3154C79.2298 94.5735 82.0813 101.644 80.8903 106.843C79.3557 95.8755 76.1281 98.7489 77.7587 100.924C78.8025 102.317 78.1066 106.495 74.975 104.406C69.808 106.863 62.4486 94.6574 70.6051 88.9331C70.4593 85.839 73.9001 85.3502 76.0189 86.3015C81.1609 82.4688 87.0356 87.3798 87.8494 92.9166Z" fill="#2F2E41"/>
<path d="M63.8737 84.9139C61.7933 97.7126 50.6424 82.5601 45.3994 95.1553C43.7509 99.7165 46.5793 102.979 48.3683 106.766C48.7767 109.877 44.7313 111.456 44.3076 114.32C44.1897 120.886 54.7767 120.484 57.7364 116.341C60.7775 112.005 57.146 106.186 58.974 101.532C61.5431 95.069 71.9912 95.0209 72.9014 87.5023C71.1386 84.9906 66.3985 82.1138 63.8737 84.9139Z" fill="#2F2E41"/>
<path d="M72.3011 86.1643C72.2331 86.193 72.165 86.2216 72.1041 86.2539H72.1005C72.0432 86.2826 71.9859 86.3112 71.9286 86.3435C71.9214 86.3471 71.9179 86.3507 71.9107 86.3543C71.8355 86.2826 71.7602 86.2109 71.6814 86.1392C71.661 86.256 71.6659 86.3757 71.6957 86.4904L71.7065 86.5335C71.7782 86.6087 71.8534 86.6804 71.9322 86.7557C72.0038 86.7019 72.0719 86.6446 72.1435 86.5908C72.1865 86.555 72.2295 86.5191 72.2761 86.4833C72.2832 86.3901 72.294 86.2826 72.3047 86.1643L72.3011 86.1643ZM74.4575 82.1787C72.8599 81.8131 72.3441 83.9027 72.1901 84.9098C71.6098 81.2539 69.1954 82.4045 70.0301 84.899C70.2961 85.6376 70.7148 86.3118 71.2587 86.8775C71.334 86.9636 71.4164 87.0496 71.5023 87.1356C71.4056 87.6374 71.8928 87.5084 72.5519 87.046C73.0386 86.6997 73.4886 86.3046 73.8952 85.8668C75.2098 84.4869 76.2343 82.641 74.4575 82.1787ZM74.5077 84.236C74.0148 84.8719 73.4618 85.4589 72.8564 85.9887C72.6665 86.1607 72.4731 86.3256 72.2761 86.4833C72.2725 86.5155 72.2725 86.5442 72.2689 86.5693C72.2551 86.6041 72.2383 86.6377 72.2187 86.6697C72.0181 87.0317 71.7925 86.8345 71.7065 86.5335C71.6993 86.5227 71.6886 86.5119 71.6814 86.5012C71.3952 86.2053 71.1462 85.8755 70.9399 85.5191C69.4605 82.9528 71.8426 81.2073 71.7244 85.9994C71.7026 86.0434 71.6881 86.0906 71.6814 86.1392C71.661 86.256 71.6659 86.3757 71.6957 86.4904L71.7065 86.5335C71.7782 86.6087 71.8534 86.6804 71.9322 86.7557C72.0038 86.7019 72.0719 86.6446 72.1435 86.5908C72.1865 86.555 72.2295 86.5191 72.2761 86.4833C72.2832 86.3901 72.294 86.2826 72.3047 86.1643V86.1607C72.3979 85.2001 72.6522 83.4725 73.1215 83.003C74.1531 82.2109 75.4892 83.0675 74.5077 84.236ZM72.3011 86.1643C72.2331 86.193 72.165 86.2216 72.1041 86.2539H72.1005C72.0432 86.2826 71.9859 86.3112 71.9286 86.3435C71.9214 86.3471 71.9179 86.3507 71.9107 86.3543C71.8355 86.2826 71.7602 86.2109 71.6814 86.1392C71.661 86.256 71.6659 86.3757 71.6957 86.4904L71.7065 86.5335C71.7782 86.6087 71.8534 86.6804 71.9322 86.7557C72.0038 86.7019 72.0719 86.6446 72.1435 86.5908C72.1865 86.555 72.2295 86.5191 72.2761 86.4833C72.2832 86.3901 72.294 86.2826 72.3047 86.1643L72.3011 86.1643Z" fill="#2F2E41"/>
<path d="M158.67 156.728L155.219 165.733L139.029 197.687L153.255 234.858L160.597 232.919L154.545 197.687L171.906 176.58L192.524 190.572C192.524 190.572 201.668 197.715 205.146 190.944C208.625 184.172 231.134 169.77 231.134 169.77L225.565 163.827L199.645 175.964L181.755 150.768L158.67 156.728Z" fill="#2F2E41"/>
<path d="M176.084 114.249L170.403 108.142L160.658 106.8L148.717 115.165L148.837 124.423L154.74 146.238C154.74 146.238 152.491 161.912 158.772 161.755C165.052 161.598 168.475 158.465 171.033 159.103C173.59 159.74 184.463 162.454 185.152 159.612C185.841 156.769 189.504 158.804 189.343 156.115C189.183 153.425 179.428 134.04 179.428 134.04L181.853 114.652L176.084 114.249Z" fill="#A2D173"/>
<path d="M212.054 86.1364C212.105 86.6428 212.044 87.1543 211.876 87.6348C211.708 88.1152 211.437 88.5529 211.081 88.9171C210.726 89.2812 210.295 89.563 209.819 89.7425C209.343 89.922 208.833 89.9949 208.326 89.956L195.261 114.817L191.754 109.429L205.107 85.966C205.229 85.1177 205.658 84.3436 206.312 83.7903C206.966 83.237 207.8 82.9429 208.656 82.9639C209.513 82.9849 210.331 83.3195 210.958 83.9042C211.584 84.4889 211.974 85.2831 212.054 86.1364Z" fill="#FFB6B6"/>
<path d="M170.926 118.872C170.926 118.872 170.407 123.294 175.383 124.389C180.358 125.483 194.143 117.602 196.403 116.399C197.11 116.022 198.071 114.174 199.056 111.814C199.498 110.754 199.945 109.591 200.377 108.412C200.627 107.729 201.824 107.543 202.059 106.866C202.293 106.193 201.567 105.029 201.779 104.394C202.785 101.382 203.498 98.993 203.498 98.993L200.201 92.7949C195.589 95.2346 193.223 100.609 191.483 106.8L170.926 118.872Z" fill="#A2D173"/>
<path d="M112.818 91.8457C112.895 92.3488 113.082 92.8288 113.365 93.2518C113.648 93.6749 114.02 94.0307 114.455 94.2943C114.89 94.5579 115.378 94.7228 115.884 94.7773C116.39 94.8319 116.901 94.7749 117.383 94.6102L136.249 115.409L138.298 109.314L119.501 89.9413C119.171 89.1505 118.562 88.5083 117.79 88.1364C117.019 87.7645 116.138 87.6887 115.314 87.9234C114.49 88.1582 113.781 88.6871 113.321 89.41C112.861 90.1329 112.682 90.9995 112.818 91.8457Z" fill="#FFB6B6"/>
<path d="M160.825 113.241C160.825 113.241 162.433 117.392 157.89 119.698C153.347 122.004 138.029 117.825 135.54 117.226C134.761 117.038 133.369 115.49 131.825 113.451C131.132 112.536 130.408 111.522 129.695 110.488C129.282 109.89 128.077 110.009 127.68 109.413C127.285 108.82 127.697 107.511 127.333 106.949C125.605 104.286 124.317 102.151 124.317 102.151L125.96 95.3242C131.035 96.5314 134.67 101.142 137.903 106.7L160.825 113.241Z" fill="#A2D173"/>
<path d="M165.724 105.247C170.845 105.247 174.997 101.093 174.997 95.9692C174.997 90.8452 170.845 86.6914 165.724 86.6914C160.603 86.6914 156.452 90.8452 156.452 95.9692C156.452 101.093 160.603 105.247 165.724 105.247Z" fill="#FFB6B6"/>
<path d="M176.309 90.6571C175.333 89.1473 173.503 88.141 171.729 88.4238C171.563 87.2908 171.091 86.2248 170.362 85.3419C169.633 84.4591 168.677 83.7931 167.596 83.4167C166.515 83.0403 165.352 82.9677 164.233 83.207C163.114 83.4462 162.082 83.9881 161.249 84.7736C160.975 84.5807 160.656 84.4618 160.323 84.4285C159.99 84.3951 159.654 84.4484 159.347 84.5832C158.736 84.861 158.205 85.2877 157.802 85.8242C156.784 87.0946 156.129 88.6176 155.907 90.2308C155.685 91.8441 155.905 93.4874 156.543 94.9857C156.326 94.1969 157.116 93.4548 157.914 93.2778C158.712 93.1008 159.549 93.2683 160.359 93.153C161.396 93.0053 162.329 92.4031 163.368 92.2676C164.249 92.2102 165.133 92.3239 165.971 92.6022C166.809 92.8806 167.692 92.9992 168.573 92.9519C169.448 92.848 170.574 96.1643 170.559 98.5001C170.556 98.9427 170.648 99.511 171.08 99.6049C171.612 99.7206 171.921 98.9853 172.428 98.785C172.661 98.718 172.912 98.7444 173.126 98.8585C173.341 98.9727 173.502 99.1657 173.578 99.3969C173.641 99.6319 173.648 99.8788 173.597 100.117C173.547 100.355 173.44 100.578 173.286 100.766C172.974 101.14 172.604 101.461 172.191 101.717L172.399 101.891C172.597 102.1 172.862 102.234 173.148 102.27C173.434 102.305 173.724 102.24 173.967 102.085C174.446 101.761 174.833 101.32 175.093 100.803C176.071 99.2897 176.77 97.6132 177.157 95.8531C177.484 94.0853 177.284 92.1669 176.309 90.6571Z" fill="#2F2E41"/>
<path d="M244.905 127.249C232.945 136.313 209.148 133.449 201.763 148.975C179.404 195.982 160.275 160.174 140.698 156.301L140.518 155.341C160.116 156.968 181.137 154.444 201.31 148.043C219.54 142.259 235.804 133.654 248.344 123.169L249 123.99C247.676 125.097 246.311 126.184 244.905 127.249Z" fill="#F2F2F2"/>
<path d="M194.339 250.367C194.054 251.211 31.4206 251.211 31.1133 250.369C31.3978 249.523 194.031 249.523 194.339 250.367Z" fill="#CCCCCC"/>
</g>
<defs>
<clipPath id="clip0_168_2347">
<rect width="249" height="251" fill="white"/>
</clipPath>
</defs>
</svg>
