<svg width="48" height="48" viewBox="0 0 48 48" fill="none" xmlns="http://www.w3.org/2000/svg">
<path d="M16.9756 30.9775L30.9775 16.9756" stroke="white" stroke-width="6" stroke-linecap="round" stroke-linejoin="round"/>
<path d="M18.1424 19.3092C18.7868 19.3092 19.3092 18.7868 19.3092 18.1424C19.3092 17.498 18.7868 16.9756 18.1424 16.9756C17.498 16.9756 16.9756 17.498 16.9756 18.1424C16.9756 18.7868 17.498 19.3092 18.1424 19.3092Z" fill="white" stroke="white" stroke-width="6" stroke-linecap="round" stroke-linejoin="round"/>
<path d="M29.8114 30.9777C30.4558 30.9777 30.9782 30.4553 30.9782 29.8109C30.9782 29.1665 30.4558 28.644 29.8114 28.644C29.1669 28.644 28.6445 29.1665 28.6445 29.8109C28.6445 30.4553 29.1669 30.9777 29.8114 30.9777Z" fill="white" stroke="white" stroke-width="6" stroke-linecap="round" stroke-linejoin="round"/>
<path d="M7.64105 12.7751C7.64105 11.4135 8.18195 10.1076 9.14478 9.14478C10.1076 8.18195 11.4135 7.64105 12.7751 7.64105H15.1088C16.4644 7.64027 17.7647 7.10338 18.7259 6.14751L20.3595 4.51394C20.8366 4.03414 21.4038 3.65339 22.0286 3.39357C22.6534 3.13375 23.3234 3 24 3C24.6766 3 25.3466 3.13375 25.9714 3.39357C26.5961 3.65339 27.1634 4.03414 27.6405 4.51394L29.2741 6.14751C30.2353 7.10338 31.5356 7.64027 32.8912 7.64105H35.2249C36.5865 7.64105 37.8924 8.18195 38.8552 9.14478C39.818 10.1076 40.359 11.4135 40.359 12.7751V15.1088C40.3597 16.4644 40.8966 17.7647 41.8525 18.7259L43.4861 20.3595C43.9659 20.8366 44.3466 21.4038 44.6064 22.0286C44.8662 22.6534 45 23.3234 45 24C45 24.6766 44.8662 25.3466 44.6064 25.9714C44.3466 26.5961 43.9659 27.1634 43.4861 27.6405L41.8525 29.2741C40.8966 30.2353 40.3597 31.5356 40.359 32.8912V35.2249C40.359 36.5865 39.818 37.8924 38.8552 38.8552C37.8924 39.818 36.5865 40.359 35.2249 40.359H32.8912C31.5356 40.3597 30.2353 40.8966 29.2741 41.8525L27.6405 43.4861C27.1634 43.9659 26.5961 44.3466 25.9714 44.6064C25.3466 44.8662 24.6766 45 24 45C23.3234 45 22.6534 44.8662 22.0286 44.6064C21.4038 44.3466 20.8366 43.9659 20.3595 43.4861L18.7259 41.8525C17.7647 40.8966 16.4644 40.3597 15.1088 40.359H12.7751C11.4135 40.359 10.1076 39.818 9.14478 38.8552C8.18195 37.8924 7.64105 36.5865 7.64105 35.2249V32.8912C7.64027 31.5356 7.10338 30.2353 6.14751 29.2741L4.51394 27.6405C4.03414 27.1634 3.65339 26.5961 3.39357 25.9714C3.13375 25.3466 3 24.6766 3 24C3 23.3234 3.13375 22.6534 3.39357 22.0286C3.65339 21.4038 4.03414 20.8366 4.51394 20.3595L6.14751 18.7259C7.10338 17.7647 7.64027 16.4644 7.64105 15.1088V12.7751" stroke="white" stroke-width="6" stroke-linecap="round" stroke-linejoin="round"/>
</svg>
