<svg width="25" height="25" viewBox="0 0 25 25" fill="none" xmlns="http://www.w3.org/2000/svg">
<path d="M24.9872 4.72622V6.15278C24.9872 6.24184 24.9306 6.317 24.8513 6.34583V21.2003C24.8513 21.3141 24.7591 21.4063 24.6454 21.4063H3.09051V22.3844C3.09051 22.4982 2.99836 22.5903 2.88459 22.5903H1.30564C1.19187 22.5903 1.09972 22.4982 1.09972 22.3844V21.4063H0.354778C0.241003 21.4063 0.148851 21.3141 0.148851 21.2003V6.34583C0.0700841 6.317 0.0129395 6.24184 0.0129395 6.15278V4.72622C0.0129395 4.63716 0.0700841 4.56199 0.148851 4.53316V3.46595C0.148851 3.35217 0.241003 3.26002 0.354778 3.26002H1.09972V2.61547C1.09972 2.5017 1.19187 2.40955 1.30564 2.40955H2.88459C2.99836 2.40955 3.09051 2.5017 3.09051 2.61547V3.26002H24.6454C24.7591 3.26002 24.8513 3.35217 24.8513 3.46595V4.53316C24.9306 4.56199 24.9872 4.63716 24.9872 4.72622ZM24.5753 5.94685V4.93215H3.09051V5.94685H4.17523V5.55353C4.17523 5.43976 4.26738 5.3476 4.38116 5.3476C4.49442 5.3476 4.58708 5.43976 4.58708 5.55353V5.94685H4.96805V5.55353C4.96805 5.43976 5.0602 5.3476 5.17397 5.3476C5.28775 5.3476 5.3799 5.43976 5.3799 5.55353V5.94685H5.76138V5.55353C5.76138 5.43976 5.85353 5.3476 5.96731 5.3476C6.08108 5.3476 6.17323 5.43976 6.17323 5.55353V5.94685H6.5542V5.55353C6.5542 5.43976 6.64635 5.3476 6.76012 5.3476C6.8739 5.3476 6.96605 5.43976 6.96605 5.55353V5.94685H7.34753V5.55353C7.34753 5.43976 7.43968 5.3476 7.55346 5.3476C7.66723 5.3476 7.75938 5.43976 7.75938 5.55353V5.94685H8.14035V5.55353C8.14035 5.43976 8.2325 5.3476 8.34627 5.3476C8.46005 5.3476 8.5522 5.43976 8.5522 5.55353V5.94685H8.93368V5.55353C8.93368 5.43976 9.02583 5.3476 9.1396 5.3476C9.25338 5.3476 9.34553 5.43976 9.34553 5.55353V5.94685H9.7265V5.55353C9.7265 5.43976 9.81916 5.3476 9.93242 5.3476C10.0462 5.3476 10.1383 5.43976 10.1383 5.55353V5.94685H10.5198V5.55353C10.5198 5.43976 10.612 5.3476 10.7258 5.3476C10.8395 5.3476 10.9317 5.43976 10.9317 5.55353V5.94685H11.3132V5.55353C11.3132 5.43976 11.4053 5.3476 11.5191 5.3476C11.6323 5.3476 11.725 5.43976 11.725 5.55353V5.94685H12.106V5.55353C12.106 5.43976 12.1981 5.3476 12.3119 5.3476C12.4257 5.3476 12.5178 5.43976 12.5178 5.55353V5.94685H12.8993V5.55353C12.8993 5.43976 12.9915 5.3476 13.1052 5.3476C13.219 5.3476 13.3112 5.43976 13.3112 5.55353V5.94685H13.6921V5.55353C13.6921 5.43976 13.7843 5.3476 13.8981 5.3476C14.0118 5.3476 14.104 5.43976 14.104 5.55353V5.94685H14.4855V5.55353C14.4855 5.43976 14.5776 5.3476 14.6914 5.3476C14.8052 5.3476 14.8973 5.43976 14.8973 5.55353V5.94685H15.2783V5.55353C15.2783 5.43976 15.3704 5.3476 15.4842 5.3476C15.598 5.3476 15.6901 5.43976 15.6901 5.55353V5.94685H16.0716V5.55353C16.0716 5.43976 16.1638 5.3476 16.2775 5.3476C16.3913 5.3476 16.4835 5.43976 16.4835 5.55353V5.94685H16.8644V5.55353C16.8644 5.43976 16.9571 5.3476 17.0704 5.3476C17.1841 5.3476 17.2763 5.43976 17.2763 5.55353V5.94685H17.6578V5.55353C17.6578 5.43976 17.7499 5.3476 17.8637 5.3476C17.9775 5.3476 18.0696 5.43976 18.0696 5.55353V5.94685H18.4506V5.55353C18.4506 5.43976 18.5432 5.3476 18.6565 5.3476C18.7703 5.3476 18.8624 5.43976 18.8624 5.55353V5.94685H19.2439V5.55353C19.2439 5.43976 19.3361 5.3476 19.4498 5.3476C19.5636 5.3476 19.6558 5.43976 19.6558 5.55353V5.94685H20.0372V5.55353C20.0372 5.43976 20.1294 5.3476 20.2432 5.3476C20.3569 5.3476 20.4491 5.43976 20.4491 5.55353V5.94685H20.8301V5.55353C20.8301 5.43976 20.9222 5.3476 21.036 5.3476C21.1498 5.3476 21.2419 5.43976 21.2419 5.55353V5.94685H21.6234V5.55353C21.6234 5.43976 21.7155 5.3476 21.8293 5.3476C21.9431 5.3476 22.0352 5.43976 22.0352 5.55353V5.94685H22.4162V5.55353C22.4162 5.43976 22.5084 5.3476 22.6221 5.3476C22.7359 5.3476 22.8281 5.43976 22.8281 5.55353V5.94685H23.2095V5.55353C23.2095 5.43976 23.3017 5.3476 23.4155 5.3476C23.5292 5.3476 23.6214 5.43976 23.6214 5.55353V5.94685H24.5753V5.94685ZM24.4394 20.9944V20.0091H3.09051V20.9944H24.4394ZM24.4394 19.5972V6.3587H3.09051V19.5972H24.4394ZM24.4394 4.52029V3.67188H3.09051V4.52029H24.4394ZM2.67866 22.1785V20.4796H1.51157V22.1785H2.67866ZM2.67866 20.0677V19.364H2.26681C2.15303 19.364 2.06088 19.2718 2.06088 19.1581C2.06088 19.0443 2.15303 18.9521 2.26681 18.9521H2.67866V18.5681H2.26681C2.15303 18.5681 2.06088 18.4759 2.06088 18.3622C2.06088 18.2484 2.15303 18.1562 2.26681 18.1562H2.67866V17.7717H2.26681C2.15303 17.7717 2.06088 17.6795 2.06088 17.5657C2.06088 17.452 2.15303 17.3598 2.26681 17.3598H2.67866V16.9752H2.26681C2.15303 16.9752 2.06088 16.8831 2.06088 16.7693C2.06088 16.6561 2.15303 16.5634 2.26681 16.5634H2.67866V16.1793H2.26681C2.15303 16.1793 2.06088 16.0872 2.06088 15.9734C2.06088 15.8596 2.15303 15.7675 2.26681 15.7675H2.67866V15.3829H2.26681C2.15303 15.3829 2.06088 15.2908 2.06088 15.177C2.06088 15.0632 2.15303 14.9711 2.26681 14.9711H2.67866V14.5865H2.26681C2.15303 14.5865 2.06088 14.4943 2.06088 14.3806C2.06088 14.2668 2.15303 14.1746 2.26681 14.1746H2.67866V13.7906H2.26681C2.15303 13.7906 2.06088 13.6984 2.06088 13.5847C2.06088 13.4709 2.15303 13.3787 2.26681 13.3787H2.67866V12.9942H2.26681C2.15303 12.9942 2.06088 12.902 2.06088 12.7882C2.06088 12.6745 2.15303 12.5823 2.26681 12.5823H2.67866V12.1978H2.26681C2.15303 12.1978 2.06088 12.1056 2.06088 11.9918C2.06088 11.8786 2.15303 11.7859 2.26681 11.7859H2.67866V11.4018H2.26681C2.15303 11.4018 2.06088 11.3097 2.06088 11.1959C2.06088 11.0821 2.15303 10.99 2.26681 10.99H2.67866V10.6054H2.26681C2.15303 10.6054 2.06088 10.5133 2.06088 10.3995C2.06088 10.2857 2.15303 10.1936 2.26681 10.1936H2.67866V9.809H2.26681C2.15303 9.809 2.06088 9.71685 2.06088 9.60308C2.06088 9.48982 2.15303 9.39715 2.26681 9.39715H2.67866V9.0131H2.26681C2.15303 9.0131 2.06088 8.92094 2.06088 8.80717C2.06088 8.69339 2.15303 8.60124 2.26681 8.60124H2.67866V8.21667H2.26681C2.15303 8.21667 2.06088 8.12452 2.06088 8.01075C2.06088 7.89697 2.15303 7.80482 2.26681 7.80482H2.67866V7.42025H2.26681C2.15303 7.42025 2.06088 7.3281 2.06088 7.21433C2.06088 7.10055 2.15303 7.0084 2.26681 7.0084H2.67866V6.62435H2.26681C2.15303 6.62435 2.06088 6.5322 2.06088 6.41842C2.06088 6.30465 2.15303 6.21249 2.26681 6.21249H2.67866V5.82793H2.26681C2.15303 5.82793 2.06088 5.73577 2.06088 5.622C2.06088 5.50823 2.15303 5.41607 2.26681 5.41607H2.67866V5.03151H2.26681C2.15303 5.03151 2.06088 4.93935 2.06088 4.82558C2.06088 4.71232 2.15303 4.61965 2.26681 4.61965H2.67866V4.2356H2.26681C2.15303 4.2356 2.06088 4.14345 2.06088 4.02967C2.06088 3.9159 2.15303 3.82375 2.26681 3.82375H2.67866V3.43918H2.26681C2.15303 3.43918 2.06088 3.34703 2.06088 3.23325C2.06088 3.11948 2.15303 3.02733 2.26681 3.02733H2.67866V2.8214H1.51157V20.0677H2.67866V20.0677ZM1.09972 20.9944V20.0091H0.560704V20.9944H1.09972ZM1.09972 19.5972V6.3587H0.560704V19.5972H1.09972ZM1.09972 5.94685V4.93215H0.424793V5.94685H1.09972V5.94685ZM1.09972 4.52029V3.67188H0.560704V4.52029H1.09972Z" fill="black"/>
<path d="M24.5754 4.93213V5.94683H23.6215V5.55351C23.6215 5.43974 23.5293 5.34759 23.4155 5.34759C23.3018 5.34759 23.2096 5.43974 23.2096 5.55351V5.94683H22.8281V5.55351C22.8281 5.43974 22.736 5.34759 22.6222 5.34759C22.5084 5.34759 22.4163 5.43974 22.4163 5.55351V5.94683H22.0353V5.55351C22.0353 5.43974 21.9432 5.34759 21.8294 5.34759C21.7156 5.34759 21.6235 5.43974 21.6235 5.55351V5.94683H21.242V5.55351C21.242 5.43974 21.1498 5.34759 21.036 5.34759C20.9223 5.34759 20.8301 5.43974 20.8301 5.55351V5.94683H20.4492V5.55351C20.4492 5.43974 20.357 5.34759 20.2432 5.34759C20.1295 5.34759 20.0373 5.43974 20.0373 5.55351V5.94683H19.6558V5.55351C19.6558 5.43974 19.5637 5.34759 19.4499 5.34759C19.3361 5.34759 19.244 5.43974 19.244 5.55351V5.94683H18.8625V5.55351C18.8625 5.43974 18.7703 5.34759 18.6566 5.34759C18.5433 5.34759 18.4506 5.43974 18.4506 5.55351V5.94683H18.0697V5.55351C18.0697 5.43974 17.9775 5.34759 17.8637 5.34759C17.75 5.34759 17.6578 5.43974 17.6578 5.55351V5.94683H17.2763V5.55351C17.2763 5.43974 17.1842 5.34759 17.0704 5.34759C16.9572 5.34759 16.8645 5.43974 16.8645 5.55351V5.94683H16.4835V5.55351C16.4835 5.43974 16.3914 5.34759 16.2776 5.34759C16.1638 5.34759 16.0717 5.43974 16.0717 5.55351V5.94683H15.6902V5.55351C15.6902 5.43974 15.598 5.34759 15.4843 5.34759C15.3705 5.34759 15.2783 5.43974 15.2783 5.55351V5.94683H14.8974V5.55351C14.8974 5.43974 14.8052 5.34759 14.6914 5.34759C14.5777 5.34759 14.4855 5.43974 14.4855 5.55351V5.94683H14.104V5.55351C14.104 5.43974 14.0119 5.34759 13.8981 5.34759C13.7843 5.34759 13.6922 5.43974 13.6922 5.55351V5.94683H13.3112V5.55351C13.3112 5.43974 13.2191 5.34759 13.1053 5.34759C12.9915 5.34759 12.8994 5.43974 12.8994 5.55351V5.94683H12.5179V5.55351C12.5179 5.43974 12.4257 5.34759 12.312 5.34759C12.1982 5.34759 12.106 5.43974 12.106 5.55351V5.94683H11.7251V5.55351C11.7251 5.43974 11.6324 5.34759 11.5192 5.34759C11.4054 5.34759 11.3132 5.43974 11.3132 5.55351V5.94683H10.9317V5.55351C10.9317 5.43974 10.8396 5.34759 10.7258 5.34759C10.612 5.34759 10.5199 5.43974 10.5199 5.55351V5.94683H10.1384V5.55351C10.1384 5.43974 10.0463 5.34759 9.93249 5.34759C9.81923 5.34759 9.72656 5.43974 9.72656 5.55351V5.94683H9.3456V5.55351C9.3456 5.43974 9.25344 5.34759 9.13967 5.34759C9.02589 5.34759 8.93374 5.43974 8.93374 5.55351V5.94683H8.55226V5.55351C8.55226 5.43974 8.46011 5.34759 8.34634 5.34759C8.23256 5.34759 8.14041 5.43974 8.14041 5.55351V5.94683H7.75945V5.55351C7.75945 5.43974 7.66729 5.34759 7.55352 5.34759C7.43975 5.34759 7.34759 5.43974 7.34759 5.55351V5.94683H6.96611V5.55351C6.96611 5.43974 6.87396 5.34759 6.76019 5.34759C6.64641 5.34759 6.55426 5.43974 6.55426 5.55351V5.94683H6.1733V5.55351C6.1733 5.43974 6.08114 5.34759 5.96737 5.34759C5.8536 5.34759 5.76144 5.43974 5.76144 5.55351V5.94683H5.37996V5.55351C5.37996 5.43974 5.28781 5.34759 5.17404 5.34759C5.06026 5.34759 4.96811 5.43974 4.96811 5.55351V5.94683H4.58715V5.55351C4.58715 5.43974 4.49448 5.34759 4.38122 5.34759C4.26745 5.34759 4.17529 5.43974 4.17529 5.55351V5.94683H3.09058V4.93213H24.5754Z" fill="#E6E6E6"/>
<path d="M24.4395 20.009H3.09058V20.9944H24.4395V20.009Z" fill="#2197C1"/>
<path d="M24.4395 6.35864V19.5971H3.09058V6.35864H24.4395V6.35864ZM23.937 18.0702C23.9648 18.0064 23.9587 17.9333 23.9206 17.8751C23.8825 17.8169 23.8176 17.7819 23.7481 17.7819H21.904C21.8222 17.7819 21.748 17.8303 21.7156 17.9055L21.3918 18.6468C21.364 18.7106 21.3702 18.7837 21.4083 18.8419C21.4464 18.9001 21.5112 18.9351 21.5807 18.9351H23.4248C23.5067 18.9351 23.5808 18.8867 23.6137 18.8115L23.937 18.0702ZM23.7862 16.0691V13.1177C23.7862 13.0039 23.6935 12.9117 23.5803 12.9117C23.4665 12.9117 23.3743 13.0039 23.3743 13.1177V16.0691C23.3743 16.1829 23.4665 16.275 23.5803 16.275C23.6935 16.275 23.7862 16.1829 23.7862 16.0691ZM23.6457 10.7886C23.7445 10.7732 23.8202 10.6888 23.8202 10.5858C23.8202 10.472 23.728 10.3799 23.6142 10.3799H23.5674C23.4722 9.93147 23.3445 9.48718 23.1839 9.04856C23.4063 8.94457 23.5612 8.71908 23.5612 8.45755C23.5612 8.17028 23.3738 7.92626 23.1149 7.83977V7.29098C23.1149 7.1772 23.0227 7.08505 22.9089 7.08505C22.7957 7.08505 22.703 7.1772 22.703 7.29098V7.83977C22.4446 7.92626 22.2572 8.17028 22.2572 8.45755C22.2572 8.71908 22.4122 8.94457 22.6346 9.04856C22.4739 9.48718 22.3463 9.93147 22.2505 10.3799H22.2042C22.0904 10.3799 21.9982 10.472 21.9982 10.5858C21.9982 10.6888 22.0739 10.7732 22.1728 10.7886C22.094 11.2597 22.0508 11.7344 22.0441 12.2106C22.0425 12.3243 22.1336 12.4175 22.2474 12.4191C22.2484 12.4191 22.2495 12.4191 22.25 12.4191C22.3627 12.4191 22.4544 12.3285 22.4559 12.2157C22.4626 11.7395 22.5074 11.2638 22.5903 10.7917H23.2281C23.311 11.2638 23.3558 11.7395 23.3625 12.2157C23.364 12.3285 23.4557 12.4191 23.5684 12.4191C23.5689 12.4191 23.57 12.4191 23.571 12.4191C23.6848 12.4175 23.7759 12.3243 23.7744 12.2106C23.7677 11.7344 23.7244 11.2597 23.6457 10.7886ZM23.1339 16.0691V13.1177C23.1339 13.0039 23.0418 12.9117 22.928 12.9117C22.8142 12.9117 22.7221 13.0039 22.7221 13.1177V16.0691C22.7221 16.1829 22.8142 16.275 22.928 16.275C23.0418 16.275 23.1339 16.1829 23.1339 16.0691ZM22.4817 16.0691V13.1177C22.4817 13.0039 22.3895 12.9117 22.2757 12.9117C22.162 12.9117 22.0698 13.0039 22.0698 13.1177V16.0691C22.0698 16.1829 22.162 16.275 22.2757 16.275C22.3895 16.275 22.4817 16.1829 22.4817 16.0691ZM21.0505 18.1927V10.5503C21.0505 10.4576 20.9887 10.3763 20.8991 10.3516C20.81 10.3268 20.7153 10.3655 20.668 10.4447C20.4049 10.887 19.9225 11.1614 19.4082 11.1614H8.68097C8.16718 11.1614 7.68428 10.887 7.42173 10.4447C7.37436 10.3655 7.27964 10.3268 7.19006 10.3516C7.101 10.3763 7.0387 10.4576 7.0387 10.5503V18.288C7.0387 18.4774 7.10357 18.6638 7.22043 18.8126C7.48248 19.1457 7.87528 19.3361 8.29846 19.3361H19.8865C20.2489 19.3361 20.5856 19.1729 20.81 18.8877C20.965 18.6906 21.0505 18.4434 21.0505 18.1927ZM19.8051 10.5091V7.31723C19.8051 7.20346 19.7125 7.1113 19.5992 7.1113H14.7939C14.6801 7.1113 14.588 7.20346 14.588 7.31723V10.5091C14.588 10.6229 14.6801 10.715 14.7939 10.715H19.5992C19.7125 10.715 19.8051 10.6229 19.8051 10.5091ZM13.7751 7.42122C13.842 7.36614 13.8672 7.2745 13.8374 7.19316C13.808 7.1113 13.7308 7.05673 13.6438 7.05673H5.86492C5.77792 7.05673 5.7007 7.1113 5.67084 7.19316C5.64149 7.2745 5.66672 7.36614 5.73364 7.42122L9.62308 10.6357C9.66118 10.6671 9.70803 10.6826 9.75436 10.6826C9.80069 10.6826 9.84754 10.6671 9.88564 10.6357L13.7751 7.42122ZM6.41011 13.0894C6.41011 12.9756 6.31796 12.8834 6.20419 12.8834H5.85668V12.1838C5.85668 12.1261 5.83249 12.0705 5.78976 12.0319C5.74651 11.9928 5.68988 11.9732 5.63171 11.9789L4.01107 12.1297C3.90502 12.1395 3.82419 12.2286 3.82419 12.3346V12.7954C3.82419 12.9092 3.91634 13.0013 4.03012 13.0013H4.8914V13.3112H4.0296C3.91583 13.3112 3.82367 13.4034 3.82367 13.5172V13.9774C3.82367 14.084 3.90502 14.1725 4.01055 14.1823L4.8914 14.2647V15.2027C4.8914 15.3164 4.98356 15.4086 5.09733 15.4086H5.14315V17.8689C5.14315 17.9827 5.2353 18.0748 5.34908 18.0748C5.46285 18.0748 5.555 17.9827 5.555 17.8689V15.4086H5.65076C5.76453 15.4086 5.85668 15.3164 5.85668 15.2027V13.9995H6.20419C6.31796 13.9995 6.41011 13.9074 6.41011 13.7936C6.41011 13.6804 6.31796 13.5877 6.20419 13.5877H5.85668V13.2953H6.20419C6.31796 13.2953 6.41011 13.2031 6.41011 13.0894Z" fill="#ECD42B"/>
<path d="M24.4395 3.67188H3.09058V4.52029H24.4395V3.67188Z" fill="#ECD42B"/>
<path d="M23.9205 17.8752C23.9586 17.9333 23.9648 18.0064 23.937 18.0703L23.6137 18.8116C23.5807 18.8868 23.5066 18.9352 23.4247 18.9352H21.5807C21.5112 18.9352 21.4463 18.9002 21.4082 18.842C21.3701 18.7838 21.3639 18.7107 21.3917 18.6469L21.7155 17.9055C21.748 17.8304 21.8221 17.782 21.904 17.782H23.748C23.8175 17.782 23.8824 17.817 23.9205 17.8752ZM23.2898 18.5233L23.434 18.1938H23.0983L22.9547 18.5233H23.2898ZM22.5053 18.5233L22.6494 18.1938H22.0388L21.8952 18.5233H22.5053Z" fill="black"/>
<path d="M23.7861 13.1177V16.0691C23.7861 16.1829 23.6935 16.275 23.5802 16.275C23.4664 16.275 23.3743 16.1829 23.3743 16.0691V13.1177C23.3743 13.0039 23.4664 12.9117 23.5802 12.9117C23.6935 12.9117 23.7861 13.0039 23.7861 13.1177Z" fill="black"/>
<path d="M23.8202 10.5858C23.8202 10.6888 23.7445 10.7732 23.6457 10.7887C23.7245 11.2597 23.7677 11.7344 23.7744 12.2106C23.776 12.3244 23.6848 12.4176 23.5711 12.4191C23.57 12.4191 23.569 12.4191 23.5685 12.4191C23.4557 12.4191 23.3641 12.3285 23.3626 12.2157C23.3559 11.7395 23.3111 11.2638 23.2282 10.7918H22.5903C22.5074 11.2638 22.4627 11.7395 22.456 12.2157C22.4544 12.3285 22.3628 12.4191 22.25 12.4191C22.2495 12.4191 22.2485 12.4191 22.2475 12.4191C22.1337 12.4176 22.0426 12.3244 22.0441 12.2106C22.0508 11.7344 22.094 11.2597 22.1728 10.7887C22.074 10.7732 21.9983 10.6888 21.9983 10.5858C21.9983 10.4721 22.0904 10.3799 22.2042 10.3799H22.2506C22.3463 9.9315 22.474 9.48722 22.6346 9.04859C22.4122 8.9446 22.2572 8.71911 22.2572 8.45758C22.2572 8.17032 22.4446 7.92629 22.7031 7.8398V7.29101C22.7031 7.17724 22.7957 7.08508 22.909 7.08508C23.0228 7.08508 23.1149 7.17724 23.1149 7.29101V7.8398C23.3739 7.92629 23.5613 8.17032 23.5613 8.45758C23.5613 8.71911 23.4063 8.9446 23.1839 9.04859C23.3445 9.48722 23.4722 9.9315 23.5675 10.3799H23.6143C23.7281 10.3799 23.8202 10.4721 23.8202 10.5858ZM22.6722 10.3799H23.1463C23.082 10.089 23.0027 9.80022 22.909 9.51296C22.8158 9.80022 22.7365 10.089 22.6722 10.3799ZM23.1494 8.45758C23.1494 8.32528 23.0418 8.21768 22.909 8.21768C22.7767 8.21768 22.6691 8.32528 22.6691 8.45758C22.6691 8.59041 22.7767 8.698 22.909 8.698C23.0418 8.698 23.1494 8.59041 23.1494 8.45758Z" fill="black"/>
<path d="M23.4339 18.1938L23.2897 18.5233H22.9546L23.0982 18.1938H23.4339Z" fill="#E8653D"/>
<path d="M23.1463 10.3799H22.6721C22.7365 10.089 22.8158 9.80021 22.9089 9.51294C23.0026 9.80021 23.0819 10.089 23.1463 10.3799Z" fill="#ECD42B"/>
<path d="M23.1338 13.1177V16.0691C23.1338 16.1829 23.0416 16.275 22.9279 16.275C22.8141 16.275 22.7219 16.1829 22.7219 16.0691V13.1177C22.7219 13.0039 22.8141 12.9117 22.9279 12.9117C23.0416 12.9117 23.1338 13.0039 23.1338 13.1177Z" fill="black"/>
<path d="M22.9088 8.21765C23.0417 8.21765 23.1493 8.32525 23.1493 8.45756C23.1493 8.59038 23.0417 8.69798 22.9088 8.69798C22.7765 8.69798 22.6689 8.59038 22.6689 8.45756C22.6689 8.32525 22.7765 8.21765 22.9088 8.21765Z" fill="#ECD42B"/>
<path d="M22.6495 18.1938L22.5053 18.5233H21.8953L22.0389 18.1938H22.6495Z" fill="#2197C1"/>
<path d="M22.4817 13.1177V16.0691C22.4817 16.1829 22.3895 16.275 22.2758 16.275C22.162 16.275 22.0698 16.1829 22.0698 16.0691V13.1177C22.0698 13.0039 22.162 12.9117 22.2758 12.9117C22.3895 12.9117 22.4817 13.0039 22.4817 13.1177Z" fill="black"/>
<path d="M21.0503 10.5504V18.1928C21.0503 18.4435 20.9649 18.6906 20.8099 18.8878C20.5855 19.173 20.2488 19.3362 19.8863 19.3362H8.29833C7.87515 19.3362 7.48235 19.1457 7.2203 18.8127C7.10344 18.6639 7.03857 18.4775 7.03857 18.2881V10.5504C7.03857 10.4577 7.10087 10.3764 7.18993 10.3516C7.27951 10.3269 7.37423 10.3655 7.4216 10.4448C7.68415 10.8871 8.16705 11.1615 8.68084 11.1615H19.4081C19.9224 11.1615 20.4048 10.8871 20.6678 10.4448C20.7152 10.3655 20.8099 10.3269 20.899 10.3516C20.9886 10.3764 21.0503 10.4577 21.0503 10.5504ZM20.6385 18.1928V11.1125C20.3013 11.4044 19.8647 11.5733 19.4081 11.5733H8.68084C8.22471 11.5733 7.78763 11.4044 7.45043 11.1125V18.2881C7.45043 18.3859 7.48389 18.4816 7.54412 18.5583C7.7274 18.791 8.00231 18.9244 8.29833 18.9244H19.8863C20.1216 18.9244 20.3404 18.8183 20.4861 18.6335C20.5844 18.5084 20.6385 18.3519 20.6385 18.1928Z" fill="black"/>
<path d="M19.805 7.31725V10.5091C19.805 10.6229 19.7124 10.715 19.5991 10.715H14.7938C14.68 10.715 14.5879 10.6229 14.5879 10.5091V7.31725C14.5879 7.20348 14.68 7.11133 14.7938 7.11133H19.5991C19.7124 7.11133 19.805 7.20348 19.805 7.31725ZM19.3932 10.3032V7.52318H14.9997V10.3032H19.3932Z" fill="black"/>
<path d="M19.3932 7.52319V10.3032H14.9998V7.52319H19.3932ZM19.1528 7.96954C19.1528 7.85576 19.0606 7.76361 18.9469 7.76361H15.4461C15.3323 7.76361 15.2402 7.85576 15.2402 7.96954C15.2402 8.08331 15.3323 8.17547 15.4461 8.17547H18.9469C19.0606 8.17547 19.1528 8.08331 19.1528 7.96954ZM19.1075 8.74691C19.1075 8.63314 19.0153 8.54099 18.9016 8.54099H18.5226C18.4089 8.54099 18.3167 8.63314 18.3167 8.74691C18.3167 8.86069 18.4089 8.95284 18.5226 8.95284H18.9016C19.0153 8.95284 19.1075 8.86069 19.1075 8.74691ZM19.1075 9.29622C19.1075 9.18245 19.0153 9.09029 18.9016 9.09029H18.5226C18.4089 9.09029 18.3167 9.18245 18.3167 9.29622C18.3167 9.41 18.4089 9.50215 18.5226 9.50215H18.9016C19.0153 9.50215 19.1075 9.41 19.1075 9.29622ZM19.1075 9.84502C19.1075 9.73176 19.0153 9.63909 18.9016 9.63909H18.5226C18.4089 9.63909 18.3167 9.73176 18.3167 9.84502C18.3167 9.95879 18.4089 10.0509 18.5226 10.0509H18.9016C19.0153 10.0509 19.1075 9.95879 19.1075 9.84502ZM18.0856 8.74691C18.0856 8.63314 17.9934 8.54099 17.8796 8.54099H17.5007C17.387 8.54099 17.2948 8.63314 17.2948 8.74691C17.2948 8.86069 17.387 8.95284 17.5007 8.95284H17.8796C17.9934 8.95284 18.0856 8.86069 18.0856 8.74691ZM18.0856 9.29622C18.0856 9.18245 17.9934 9.09029 17.8796 9.09029H17.5007C17.387 9.09029 17.2948 9.18245 17.2948 9.29622C17.2948 9.41 17.387 9.50215 17.5007 9.50215H17.8796C17.9934 9.50215 18.0856 9.41 18.0856 9.29622ZM18.0856 9.84502C18.0856 9.73176 17.9934 9.63909 17.8796 9.63909H17.5007C17.387 9.63909 17.2948 9.73176 17.2948 9.84502C17.2948 9.95879 17.387 10.0509 17.5007 10.0509H17.8796C17.9934 10.0509 18.0856 9.95879 18.0856 9.84502ZM17.0637 8.74691C17.0637 8.63314 16.9715 8.54099 16.8577 8.54099H16.4788C16.365 8.54099 16.2729 8.63314 16.2729 8.74691C16.2729 8.86069 16.365 8.95284 16.4788 8.95284H16.8577C16.9715 8.95284 17.0637 8.86069 17.0637 8.74691ZM17.0637 9.29622C17.0637 9.18245 16.9715 9.09029 16.8577 9.09029H16.4788C16.365 9.09029 16.2729 9.18245 16.2729 9.29622C16.2729 9.41 16.365 9.50215 16.4788 9.50215H16.8577C16.9715 9.50215 17.0637 9.41 17.0637 9.29622ZM17.0637 9.84502C17.0637 9.73176 16.9715 9.63909 16.8577 9.63909H16.4788C16.365 9.63909 16.2729 9.73176 16.2729 9.84502C16.2729 9.95879 16.365 10.0509 16.4788 10.0509H16.8577C16.9715 10.0509 17.0637 9.95879 17.0637 9.84502ZM16.0417 8.74691C16.0417 8.63314 15.9496 8.54099 15.8358 8.54099H15.4569C15.3431 8.54099 15.251 8.63314 15.251 8.74691C15.251 8.86069 15.3431 8.95284 15.4569 8.95284H15.8358C15.9496 8.95284 16.0417 8.86069 16.0417 8.74691ZM16.0417 9.29622C16.0417 9.18245 15.9496 9.09029 15.8358 9.09029H15.4569C15.3431 9.09029 15.251 9.18245 15.251 9.29622C15.251 9.41 15.3431 9.50215 15.4569 9.50215H15.8358C15.9496 9.50215 16.0417 9.41 16.0417 9.29622ZM16.0417 9.84502C16.0417 9.73176 15.9496 9.63909 15.8358 9.63909H15.4569C15.3431 9.63909 15.251 9.73176 15.251 9.84502C15.251 9.95879 15.3431 10.0509 15.4569 10.0509H15.8358C15.9496 10.0509 16.0417 9.95879 16.0417 9.84502Z" fill="#666666"/>
<path d="M18.9469 7.76367C19.0607 7.76367 19.1528 7.85582 19.1528 7.9696C19.1528 8.08337 19.0607 8.17553 18.9469 8.17553H15.4462C15.3324 8.17553 15.2402 8.08337 15.2402 7.9696C15.2402 7.85582 15.3324 7.76367 15.4462 7.76367H18.9469Z" fill="black"/>
<path d="M18.9015 8.54102C19.0153 8.54102 19.1074 8.63317 19.1074 8.74694C19.1074 8.86072 19.0153 8.95287 18.9015 8.95287H18.5226C18.4088 8.95287 18.3167 8.86072 18.3167 8.74694C18.3167 8.63317 18.4088 8.54102 18.5226 8.54102H18.9015Z" fill="black"/>
<path d="M18.9015 9.09033C19.0153 9.09033 19.1074 9.18248 19.1074 9.29626C19.1074 9.41003 19.0153 9.50219 18.9015 9.50219H18.5226C18.4088 9.50219 18.3167 9.41003 18.3167 9.29626C18.3167 9.18248 18.4088 9.09033 18.5226 9.09033H18.9015Z" fill="black"/>
<path d="M18.9015 9.63916C19.0153 9.63916 19.1074 9.73183 19.1074 9.84509C19.1074 9.95886 19.0153 10.051 18.9015 10.051H18.5226C18.4088 10.051 18.3167 9.95886 18.3167 9.84509C18.3167 9.73183 18.4088 9.63916 18.5226 9.63916H18.9015Z" fill="black"/>
<path d="M17.8798 8.54102C17.9935 8.54102 18.0857 8.63317 18.0857 8.74694C18.0857 8.86072 17.9935 8.95287 17.8798 8.95287H17.5008C17.3871 8.95287 17.2949 8.86072 17.2949 8.74694C17.2949 8.63317 17.3871 8.54102 17.5008 8.54102H17.8798Z" fill="black"/>
<path d="M17.8798 9.09033C17.9935 9.09033 18.0857 9.18248 18.0857 9.29626C18.0857 9.41003 17.9935 9.50219 17.8798 9.50219H17.5008C17.3871 9.50219 17.2949 9.41003 17.2949 9.29626C17.2949 9.18248 17.3871 9.09033 17.5008 9.09033H17.8798Z" fill="black"/>
<path d="M17.8798 9.63916C17.9935 9.63916 18.0857 9.73183 18.0857 9.84509C18.0857 9.95886 17.9935 10.051 17.8798 10.051H17.5008C17.3871 10.051 17.2949 9.95886 17.2949 9.84509C17.2949 9.73183 17.3871 9.63916 17.5008 9.63916H17.8798Z" fill="black"/>
<path d="M17.5893 15.0427C17.6825 15.1081 17.7051 15.2362 17.6398 15.3294C17.5996 15.3866 17.5358 15.4175 17.4709 15.4175C17.4302 15.4175 17.389 15.4051 17.353 15.3799L14.607 13.4581C14.5143 13.3927 14.4911 13.2645 14.5565 13.1713C14.6219 13.0781 14.7501 13.0555 14.8433 13.1209L17.5893 15.0427Z" fill="black"/>
<path d="M17.4364 15.8411C17.5378 15.8926 17.5785 16.0167 17.527 16.1181L17.0776 17.0056C17.0529 17.0545 17.0096 17.0916 16.9576 17.1086C16.937 17.1153 16.9154 17.1184 16.8938 17.1184C16.8613 17.1184 16.8294 17.1112 16.8006 17.0962L10.2794 13.7921C10.178 13.7407 10.1373 13.6171 10.1888 13.5157L10.6388 12.6276C10.6635 12.5787 10.7062 12.5422 10.7582 12.5252C10.8102 12.5082 10.8668 12.5123 10.9157 12.537L17.4364 15.8411ZM16.8032 16.636L17.0668 16.1155L16.7203 15.94L16.6431 16.0934C16.6065 16.1649 16.5344 16.2061 16.4593 16.2061C16.4279 16.2061 16.396 16.1989 16.3661 16.184C16.2647 16.1325 16.224 16.0084 16.2755 15.907L16.3532 15.7541L15.9929 15.5714L15.9151 15.7243C15.8791 15.7958 15.8065 15.8375 15.7313 15.8375C15.6999 15.8375 15.6685 15.8303 15.6387 15.8149C15.5372 15.7639 15.4966 15.6398 15.5481 15.5384L15.6253 15.385L15.2649 15.2027L15.1877 15.3556C15.1511 15.4272 15.0791 15.4684 15.0039 15.4684C14.9725 15.4684 14.9406 15.4617 14.9107 15.4463C14.8093 15.3948 14.7686 15.2712 14.8201 15.1698L14.8978 15.0164L14.5375 14.8341L14.4597 14.987C14.4237 15.0586 14.3511 15.0998 14.2759 15.0998C14.2445 15.0998 14.2131 15.0926 14.1833 15.0776C14.0819 15.0262 14.0412 14.9021 14.0927 14.8007L14.1699 14.6478L13.8095 14.465L13.7323 14.6184C13.6957 14.69 13.6237 14.7312 13.5485 14.7312C13.5171 14.7312 13.4852 14.724 13.4553 14.709C13.3539 14.6576 13.3132 14.5335 13.3647 14.4321L13.4425 14.2792L13.0821 14.0964L13.0043 14.2498C12.9683 14.3214 12.8957 14.3626 12.8206 14.3626C12.7892 14.3626 12.7577 14.3554 12.7279 14.3399C12.6265 14.2889 12.5858 14.1649 12.6373 14.0635L12.7145 13.91L12.3541 13.7278L12.2769 13.8807C12.2404 13.9523 12.1683 13.994 12.0931 13.994C12.0617 13.994 12.0298 13.9867 11.9999 13.9713C11.8985 13.9198 11.8578 13.7963 11.9093 13.6948L11.9871 13.5414L11.6267 13.3592L11.549 13.5121C11.5129 13.5836 11.4403 13.6248 11.3652 13.6248C11.3338 13.6248 11.3024 13.6176 11.2725 13.6027C11.1711 13.5512 11.1304 13.4277 11.1819 13.3257L11.2591 13.1728L10.9132 12.9973L10.6496 13.5177L16.8032 16.636Z" fill="black"/>
<path d="M17.0668 16.1156L16.8033 16.636L10.6497 13.5178L10.9132 12.9973L11.2592 13.1729L11.182 13.3258C11.1305 13.4277 11.1712 13.5513 11.2726 13.6027C11.3024 13.6177 11.3338 13.6249 11.3653 13.6249C11.4404 13.6249 11.513 13.5837 11.549 13.5121L11.6268 13.3592L11.9872 13.5415L11.9094 13.6949C11.8579 13.7963 11.8986 13.9199 12 13.9713C12.0299 13.9868 12.0618 13.994 12.0932 13.994C12.1684 13.994 12.2404 13.9523 12.277 13.8807L12.3542 13.7278L12.7146 13.9101L12.6374 14.0635C12.5859 14.1649 12.6266 14.289 12.728 14.34C12.7578 14.3554 12.7892 14.3626 12.8206 14.3626C12.8958 14.3626 12.9684 14.3214 13.0044 14.2499L13.0822 14.0964L13.4425 14.2792L13.3648 14.4321C13.3133 14.5335 13.354 14.6576 13.4554 14.7091C13.4853 14.724 13.5172 14.7312 13.5486 14.7312C13.6238 14.7312 13.6958 14.69 13.7324 14.6185L13.8096 14.4651L14.17 14.6478L14.0927 14.8007C14.0413 14.9021 14.0819 15.0262 14.1834 15.0777C14.2132 15.0926 14.2446 15.0998 14.276 15.0998C14.3512 15.0998 14.4238 15.0586 14.4598 14.9871L14.5376 14.8342L14.8979 15.0164L14.8202 15.1698C14.7687 15.2713 14.8094 15.3948 14.9108 15.4463C14.9407 15.4617 14.9726 15.4684 15.004 15.4684C15.0791 15.4684 15.1512 15.4272 15.1878 15.3557L15.265 15.2028L15.6254 15.385L15.5481 15.5384C15.4967 15.6399 15.5373 15.7639 15.6387 15.8149C15.6686 15.8303 15.7 15.8376 15.7314 15.8376C15.8066 15.8376 15.8792 15.7959 15.9152 15.7243L15.9929 15.5714L16.3533 15.7542L16.2756 15.9071C16.2241 16.0085 16.2648 16.1325 16.3662 16.184C16.396 16.199 16.428 16.2062 16.4594 16.2062C16.5345 16.2062 16.6066 16.165 16.6432 16.0934L16.7204 15.94L17.0668 16.1156Z" fill="#F9F1A5"/>
<path d="M16.8578 8.54102C16.9716 8.54102 17.0637 8.63317 17.0637 8.74694C17.0637 8.86072 16.9716 8.95287 16.8578 8.95287H16.4789C16.3651 8.95287 16.2729 8.86072 16.2729 8.74694C16.2729 8.63317 16.3651 8.54102 16.4789 8.54102H16.8578Z" fill="black"/>
<path d="M16.8578 9.09033C16.9716 9.09033 17.0637 9.18248 17.0637 9.29626C17.0637 9.41003 16.9716 9.50219 16.8578 9.50219H16.4789C16.3651 9.50219 16.2729 9.41003 16.2729 9.29626C16.2729 9.18248 16.3651 9.09033 16.4789 9.09033H16.8578Z" fill="black"/>
<path d="M16.8578 9.63916C16.9716 9.63916 17.0637 9.73183 17.0637 9.84509C17.0637 9.95886 16.9716 10.051 16.8578 10.051H16.4789C16.3651 10.051 16.2729 9.95886 16.2729 9.84509C16.2729 9.73183 16.3651 9.63916 16.4789 9.63916H16.8578Z" fill="black"/>
<path d="M15.8358 8.54102C15.9496 8.54102 16.0417 8.63317 16.0417 8.74694C16.0417 8.86072 15.9496 8.95287 15.8358 8.95287H15.4569C15.3431 8.95287 15.251 8.86072 15.251 8.74694C15.251 8.63317 15.3431 8.54102 15.4569 8.54102H15.8358Z" fill="black"/>
<path d="M15.8358 9.09033C15.9496 9.09033 16.0417 9.18248 16.0417 9.29626C16.0417 9.41003 15.9496 9.50219 15.8358 9.50219H15.4569C15.3431 9.50219 15.251 9.41003 15.251 9.29626C15.251 9.18248 15.3431 9.09033 15.4569 9.09033H15.8358Z" fill="black"/>
<path d="M15.8358 9.63916C15.9496 9.63916 16.0417 9.73183 16.0417 9.84509C16.0417 9.95886 15.9496 10.051 15.8358 10.051H15.4569C15.3431 10.051 15.251 9.95886 15.251 9.84509C15.251 9.73183 15.3431 9.63916 15.4569 9.63916H15.8358Z" fill="black"/>
<path d="M13.8373 7.19319C13.8672 7.27453 13.842 7.36617 13.775 7.42125L9.88559 10.6358C9.84749 10.6672 9.80065 10.6826 9.75431 10.6826C9.70798 10.6826 9.66113 10.6672 9.62303 10.6358L5.7336 7.42125C5.66667 7.36617 5.64144 7.27453 5.67079 7.19319C5.70065 7.11133 5.77787 7.05676 5.86487 7.05676H13.6438C13.7308 7.05676 13.808 7.11133 13.8373 7.19319ZM9.75431 10.2095L13.0713 7.46862H6.43735L9.75431 10.2095Z" fill="black"/>
<path d="M13.0712 7.46863L9.75422 10.2095L6.43726 7.46863H13.0712ZM11.485 8.24497C11.552 8.18989 11.5772 8.09825 11.5478 8.01691C11.518 7.93505 11.4408 7.88048 11.3538 7.88048H8.15468C8.06768 7.88048 7.98994 7.93505 7.9606 8.01691C7.93125 8.09825 7.95648 8.18989 8.02341 8.24497L9.62294 9.56702C9.66104 9.59842 9.70788 9.61438 9.75422 9.61438C9.80055 9.61438 9.8474 9.59842 9.8855 9.56702L11.485 8.24497Z" fill="#E8653D"/>
<path d="M11.5478 8.01692C11.5772 8.09826 11.5519 8.1899 11.485 8.24498L9.88548 9.56703C9.84739 9.59844 9.80054 9.6144 9.7542 9.6144C9.70787 9.6144 9.66102 9.59844 9.62293 9.56703L8.02339 8.24498C7.95647 8.1899 7.93124 8.09826 7.96058 8.01692C7.98993 7.93506 8.06767 7.88049 8.15467 7.88049H11.3537C11.4407 7.88049 11.518 7.93506 11.5478 8.01692ZM9.7542 9.14128L10.7813 8.29235H8.72715L9.7542 9.14128Z" fill="black"/>
<path d="M10.7814 8.29236L9.75435 9.14129L8.72729 8.29236H10.7814Z" fill="#ECD42B"/>
<path d="M6.20424 12.8835C6.31802 12.8835 6.41017 12.9757 6.41017 13.0894C6.41017 13.2032 6.31802 13.2954 6.20424 13.2954H5.85674V13.5878H6.20424C6.31802 13.5878 6.41017 13.6805 6.41017 13.7937C6.41017 13.9075 6.31802 13.9996 6.20424 13.9996H5.85674V15.2028C5.85674 15.3165 5.76459 15.4087 5.65081 15.4087H5.55506V17.869C5.55506 17.9828 5.46291 18.0749 5.34913 18.0749C5.23536 18.0749 5.14321 17.9828 5.14321 17.869V15.4087H5.09739C4.98361 15.4087 4.89146 15.3165 4.89146 15.2028V14.2648L4.01061 14.1824C3.90507 14.1726 3.82373 14.0841 3.82373 13.9775V13.5173C3.82373 13.4035 3.91588 13.3113 4.02966 13.3113H4.89146V13.0014H4.03017C3.9164 13.0014 3.82425 12.9093 3.82425 12.7955V12.3347C3.82425 12.2287 3.90507 12.1396 4.01112 12.1298L5.63177 11.979C5.68994 11.9733 5.74657 11.9929 5.78981 12.032C5.83254 12.0706 5.85674 12.1262 5.85674 12.1839V12.8835H6.20424ZM5.44489 14.9968V14.3163L5.30331 14.3029V14.9968H5.44489ZM5.44489 13.9023V13.7232H4.23558V13.7896L5.44489 13.9023ZM5.44489 13.3113V12.4099L4.2361 12.5226V12.5896H5.09739C5.21116 12.5896 5.30331 12.6817 5.30331 12.7955V13.3113H5.44489Z" fill="black"/>
<path d="M5.4448 14.3162V14.9968H5.30322V14.3029L5.4448 14.3162Z" fill="#B3B3B3"/>
<path d="M5.44466 13.7231V13.9023L4.23535 13.7896V13.7231H5.44466Z" fill="#B3B3B3"/>
<path d="M5.44487 12.4099V13.3114H5.3033V12.7955C5.3033 12.6817 5.21115 12.5896 5.09737 12.5896H4.23608V12.5227L5.44487 12.4099Z" fill="#B3B3B3"/>
<path d="M2.67856 20.4796H1.51147V22.1785H2.67856V20.4796Z" fill="#B3B3B3"/>
<path d="M2.67856 19.364V20.0678H1.51147V2.82141H2.67856V3.02734H2.26671C2.15294 3.02734 2.06078 3.11949 2.06078 3.23326C2.06078 3.34704 2.15294 3.43919 2.26671 3.43919H2.67856V3.82376H2.26671C2.15294 3.82376 2.06078 3.91591 2.06078 4.02969C2.06078 4.14346 2.15294 4.23561 2.26671 4.23561H2.67856V4.61967H2.26671C2.15294 4.61967 2.06078 4.71233 2.06078 4.82559C2.06078 4.93937 2.15294 5.03152 2.26671 5.03152H2.67856V5.41609H2.26671C2.15294 5.41609 2.06078 5.50824 2.06078 5.62201C2.06078 5.73579 2.15294 5.82794 2.26671 5.82794H2.67856V6.21251H2.26671C2.15294 6.21251 2.06078 6.30466 2.06078 6.41843C2.06078 6.53221 2.15294 6.62436 2.26671 6.62436H2.67856V7.00841H2.26671C2.15294 7.00841 2.06078 7.10057 2.06078 7.21434C2.06078 7.32811 2.15294 7.42027 2.26671 7.42027H2.67856V7.80483H2.26671C2.15294 7.80483 2.06078 7.89699 2.06078 8.01076C2.06078 8.12454 2.15294 8.21669 2.26671 8.21669H2.67856V8.60126H2.26671C2.15294 8.60126 2.06078 8.69341 2.06078 8.80718C2.06078 8.92096 2.15294 9.01311 2.26671 9.01311H2.67856V9.39716H2.26671C2.15294 9.39716 2.06078 9.48983 2.06078 9.60309C2.06078 9.71686 2.15294 9.80902 2.26671 9.80902H2.67856V10.1936H2.26671C2.15294 10.1936 2.06078 10.2857 2.06078 10.3995C2.06078 10.5133 2.15294 10.6054 2.26671 10.6054H2.67856V10.99H2.26671C2.15294 10.99 2.06078 11.0822 2.06078 11.1959C2.06078 11.3097 2.15294 11.4019 2.26671 11.4019H2.67856V11.7859H2.26671C2.15294 11.7859 2.06078 11.8786 2.06078 11.9918C2.06078 12.1056 2.15294 12.1978 2.26671 12.1978H2.67856V12.5823H2.26671C2.15294 12.5823 2.06078 12.6745 2.06078 12.7883C2.06078 12.902 2.15294 12.9942 2.26671 12.9942H2.67856V13.3788H2.26671C2.15294 13.3788 2.06078 13.4709 2.06078 13.5847C2.06078 13.6985 2.15294 13.7906 2.26671 13.7906H2.67856V14.1747H2.26671C2.15294 14.1747 2.06078 14.2668 2.06078 14.3806C2.06078 14.4944 2.15294 14.5865 2.26671 14.5865H2.67856V14.9711H2.26671C2.15294 14.9711 2.06078 15.0632 2.06078 15.177C2.06078 15.2908 2.15294 15.3829 2.26671 15.3829H2.67856V15.7675H2.26671C2.15294 15.7675 2.06078 15.8597 2.06078 15.9734C2.06078 16.0872 2.15294 16.1794 2.26671 16.1794H2.67856V16.5634H2.26671C2.15294 16.5634 2.06078 16.6561 2.06078 16.7693C2.06078 16.8831 2.15294 16.9753 2.26671 16.9753H2.67856V17.3598H2.26671C2.15294 17.3598 2.06078 17.452 2.06078 17.5658C2.06078 17.6795 2.15294 17.7717 2.26671 17.7717H2.67856V18.1562H2.26671C2.15294 18.1562 2.06078 18.2484 2.06078 18.3622C2.06078 18.4759 2.15294 18.5681 2.26671 18.5681H2.67856V18.9522H2.26671C2.15294 18.9522 2.06078 19.0443 2.06078 19.1581C2.06078 19.2719 2.15294 19.364 2.26671 19.364H2.67856V19.364Z" fill="#E6E6E6"/>
<path d="M1.0998 20.009H0.560791V20.9944H1.0998V20.009Z" fill="#2197C1"/>
<path d="M1.0998 6.35864H0.560791V19.5971H1.0998V6.35864Z" fill="#ECD42B"/>
<path d="M1.09973 4.93213H0.424805V5.94683H1.09973V4.93213Z" fill="#E6E6E6"/>
<path d="M1.0998 3.67188H0.560791V4.52029H1.0998V3.67188Z" fill="#ECD42B"/>
</svg>
