<svg width="58" height="42" viewBox="0 0 58 42" fill="none" xmlns="http://www.w3.org/2000/svg">
<path d="M57.5387 11.52C41.4826 -3.84281 16.5109 -3.83719 0.461204 11.52C-0.142358 12.0975 -0.15414 13.0753 0.429486 13.6744L3.53249 16.8591C4.08893 17.4309 4.9843 17.4431 5.56249 16.8947C18.7865 4.36219 39.2116 4.35938 52.4383 16.8947C53.0165 17.4431 53.9119 17.43 54.4683 16.8591L57.5713 13.6744C58.154 13.0753 58.1422 12.0975 57.5387 11.52ZM28.9999 30C25.7963 30 23.1999 32.6859 23.1999 36C23.1999 39.3141 25.7963 42 28.9999 42C32.2035 42 34.7999 39.3141 34.7999 36C34.7999 32.6859 32.2035 30 28.9999 30ZM47.3669 22.1634C36.9215 12.6075 21.0666 12.6178 10.633 22.1634C10.0076 22.7353 9.98771 23.7281 10.5813 24.3337L13.7024 27.5203C14.2462 28.0753 15.1216 28.1128 15.7007 27.5953C23.3087 20.7919 34.7084 20.8069 42.2983 27.5953C42.8774 28.1128 43.7528 28.0762 44.2965 27.5203L47.4177 24.3337C48.0122 23.7281 47.9913 22.7344 47.3669 22.1634Z" fill="white"/>
</svg>
