<svg width="25" height="25" viewBox="0 0 25 25" fill="none" xmlns="http://www.w3.org/2000/svg">
<g clip-path="url(#clip0_488_4994)">
<path d="M23.913 24.4565H1.08691V3.26084C1.08691 2.06025 2.0602 1.08691 3.26084 1.08691H21.7391C22.9397 1.08691 23.913 2.0602 23.913 3.26084V24.4565H23.913Z" fill="#EAFFFF"/>
<path d="M8.69561 24.4566H1.08691V20.6522H8.69561V24.4566Z" fill="#FFED8F"/>
<path d="M1.49468 19.0218V24.4566C1.49468 24.6817 1.31216 24.8642 1.08706 24.8642C0.861963 24.8642 0.679443 24.6817 0.679443 24.4566V19.0218C0.679443 18.7967 0.861963 18.6141 1.08706 18.6141C1.31216 18.6141 1.49468 18.7967 1.49468 19.0218ZM3.80444 18.6141C3.57935 18.6141 3.39683 18.7967 3.39683 19.0218V23.9131C3.39683 24.1382 3.57935 24.3207 3.80444 24.3207C4.02954 24.3207 4.21206 24.1382 4.21206 23.9131V19.0218C4.21206 18.7967 4.02954 18.6141 3.80444 18.6141Z" fill="#CEA455"/>
<path d="M7.22695 20.6522C7.22695 20.8773 7.04443 21.0599 6.81934 21.0599H0.407617C0.18252 21.0599 0 20.8773 0 20.6522C0 20.4271 0.18252 20.2446 0.407617 20.2446H6.81934C7.04443 20.2446 7.22695 20.4271 7.22695 20.6522Z" fill="#C1813A"/>
<path d="M9.23911 4.61958C9.23911 7.1709 7.17085 9.23916 4.61953 9.23916C2.06821 9.23916 0 7.17085 0 4.61958C0 2.06831 2.06826 0 4.61958 0C7.1709 0 9.23911 2.06826 9.23911 4.61958Z" fill="#FFFF81"/>
<path d="M4.61948 2.17395C5.97017 2.17395 7.06514 3.26887 7.06514 4.6196C7.06514 5.97034 5.97021 7.06526 4.61948 7.06526C3.26875 7.06526 2.17383 5.97034 2.17383 4.6196C2.17383 3.26887 3.26875 2.17395 4.61948 2.17395Z" fill="#FFF145"/>
<path d="M20.6522 4.89128C20.6522 5.49163 20.1656 5.97825 19.5652 5.97825H15.6143C15.707 6.13826 15.7609 6.32351 15.7609 6.5217C15.7609 7.12205 15.2743 7.60867 14.6739 7.60867H7.06523C6.46489 7.60867 5.97827 7.12205 5.97827 6.5217C5.97827 5.92136 6.46489 5.43474 7.06523 5.43474H11.0162C10.9235 5.27473 10.8696 5.08948 10.8696 4.89128C10.8696 4.29094 11.3562 3.80432 11.9565 3.80432H19.5652C20.1655 3.80432 20.6522 4.29094 20.6522 4.89128ZM23.913 3.80432C23.3127 3.80432 22.8261 4.29094 22.8261 4.89128C22.8261 5.49163 23.3127 5.97825 23.913 5.97825C24.5134 5.97825 25 5.49163 25 4.89128C25 4.29094 24.5134 3.80432 23.913 3.80432Z" fill="#A9D5BB"/>
<path d="M16.9189 24.4566H6.41162V13.9493H16.9189V24.4566H16.9189Z" fill="#D3D5BB"/>
<path d="M13.1664 22.9555H10.1643V18.2454C10.1643 17.9452 10.4076 17.7019 10.7078 17.7019H12.6229C12.923 17.7019 13.1663 17.9452 13.1663 18.2454V22.9555H13.1664Z" fill="#A0A092"/>
<path d="M12.3708 9.54905L18.7577 14.1618C18.8991 14.264 18.983 14.4279 18.983 14.6024V14.9068C18.983 15.207 18.7396 15.4503 18.4395 15.4503H4.89136C4.59121 15.4503 4.3479 15.207 4.3479 14.9068V14.6024C4.3479 14.4279 4.43169 14.264 4.57319 14.1618L10.9601 9.54905C11.0527 9.48215 11.1641 9.44617 11.2783 9.44617H12.0526C12.1668 9.44617 12.2781 9.48215 12.3708 9.54905Z" fill="#DD7400"/>
<path d="M9.41392 13.7422H7.16235V10.326C7.16235 10.0259 7.40566 9.78259 7.70581 9.78259H8.87041C9.17056 9.78259 9.41387 10.0259 9.41387 10.326V13.7422H9.41392Z" fill="#DDB961"/>
<path d="M11.3226 13.7422C11.3226 13.9673 11.14 14.1498 10.9149 14.1498H7.06533C6.84023 14.1498 6.65771 13.9673 6.65771 13.7422C6.65771 13.5171 6.84023 13.3346 7.06533 13.3346H10.9149C11.1401 13.3346 11.3226 13.5171 11.3226 13.7422ZM14.2664 11.9565H13.1342C12.9091 11.9565 12.7266 12.139 12.7266 12.3641C12.7266 12.5892 12.9091 12.7718 13.1342 12.7718H14.2664C14.4915 12.7718 14.674 12.5892 14.674 12.3641C14.674 12.139 14.4915 11.9565 14.2664 11.9565ZM12.8171 11.0054C12.8171 10.7803 12.6346 10.5978 12.4095 10.5978H11.2772C11.0521 10.5978 10.8696 10.7803 10.8696 11.0054C10.8696 11.2305 11.0521 11.413 11.2772 11.413H12.4095C12.6347 11.413 12.8171 11.2305 12.8171 11.0054ZM13.7229 13.6141H12.9077C12.6826 13.6141 12.5 13.7966 12.5 14.0217C12.5 14.2468 12.6826 14.4293 12.9077 14.4293H13.7229C13.948 14.4293 14.1305 14.2468 14.1305 14.0217C14.1305 13.7966 13.948 13.6141 13.7229 13.6141Z" fill="#A03D07"/>
<path d="M24.9613 16.0326C24.9613 17.9836 23.3797 19.5652 21.4287 19.5652H19.7982C17.8473 19.5652 16.2656 17.9836 16.2656 16.0326C16.2656 14.7821 16.916 13.6841 17.8964 13.0563C17.8964 13.052 17.896 13.0478 17.896 13.0434C17.896 11.5427 19.1127 10.326 20.6134 10.326C22.1142 10.326 23.3308 11.5427 23.3308 13.0434C23.3308 13.0477 23.3305 13.052 23.3305 13.0563C24.3109 13.6841 24.9613 14.7821 24.9613 16.0326Z" fill="#9FBA41"/>
<path d="M21.021 14.674V23.9131C21.021 24.1382 20.8385 24.3207 20.6134 24.3207C20.3883 24.3207 20.2058 24.1382 20.2058 23.9131V14.674C20.2058 14.4489 20.3883 14.2664 20.6134 14.2664C20.8385 14.2664 21.021 14.4488 21.021 14.674Z" fill="#C1813A"/>
<path d="M24.4178 12.7718C24.4178 13.5222 23.8095 14.1305 23.0591 14.1305C22.3087 14.1305 21.7004 13.5222 21.7004 12.7718C21.7004 12.0214 22.3087 11.4131 23.0591 11.4131C23.8095 11.4131 24.4178 12.0214 24.4178 12.7718ZM17.6243 16.8479C16.8739 16.8479 16.2656 17.4562 16.2656 18.2065C16.2656 18.9569 16.8739 19.5652 17.6243 19.5652C18.3747 19.5652 18.983 18.9569 18.983 18.2065C18.983 17.4562 18.3747 16.8479 17.6243 16.8479Z" fill="#FF7039"/>
<path d="M23.622 11.9759C23.622 12.7263 23.0137 13.3346 22.2633 13.3346C22.0956 13.3346 21.935 13.304 21.7866 13.2484C21.731 13.1 21.7004 12.9395 21.7004 12.7718C21.7004 12.0214 22.3087 11.4131 23.0591 11.4131C23.2269 11.4131 23.3875 11.4437 23.5358 11.4993C23.5914 11.6476 23.622 11.8082 23.622 11.9759ZM17.6243 16.8478C16.8739 16.8478 16.2656 17.4561 16.2656 18.2065C16.2656 18.3743 16.2962 18.5348 16.3518 18.6832C16.5002 18.7388 16.6607 18.7694 16.8285 18.7694C17.5789 18.7694 18.1872 18.1611 18.1872 17.4107C18.1872 17.2429 18.1566 17.0824 18.101 16.934C17.9526 16.8784 17.7921 16.8478 17.6243 16.8478Z" fill="#FFAF4A"/>
<path d="M24.4565 25H0.543457L1.60645 24.2407C3.39858 22.9606 5.51177 22.205 7.70928 22.0585L15.2839 21.5535C18.6954 21.326 22.0389 22.5823 24.4565 25Z" fill="#9FBA41"/>
<path d="M19.5652 25H0.543457L1.60645 24.2407C3.39858 22.9606 5.51177 22.205 7.70928 22.0585L11.0516 21.8357C14.1396 21.6298 17.1917 22.7052 19.4179 24.8552C19.4673 24.9029 19.5165 24.9512 19.5652 25Z" fill="#7F932A"/>
<path d="M14.1304 25H0.543457L1.60645 24.2408C3.39858 22.9607 5.51177 22.2051 7.70928 22.0586L8.05391 22.0356C8.74663 21.9894 9.44106 22.0969 10.0872 22.351C11.5859 22.9405 12.9657 23.8352 14.1304 25Z" fill="#9FBA41"/>
<path d="M8.69565 25H0.543457L1.60645 24.2408C1.61709 24.2332 1.62773 24.2256 1.63838 24.218C3.68398 22.7671 6.47593 22.9497 8.32446 24.6446C8.45049 24.7601 8.57422 24.8786 8.69565 25Z" fill="#7F932A"/>
<path d="M25 24.5924C25 24.8175 24.8175 25 24.5924 25H0.407617C0.18252 25 0 24.8175 0 24.5924C0 24.3673 0.18252 24.1848 0.407617 24.1848H24.5924C24.8175 24.1848 25 24.3673 25 24.5924Z" fill="#606D11"/>
</g>
<defs>
<clipPath id="clip0_488_4994">
<rect width="25" height="25" fill="white"/>
</clipPath>
</defs>
</svg>
