<svg width="62" height="70" viewBox="0 0 62 70" fill="none" xmlns="http://www.w3.org/2000/svg">
<path d="M50.1246 31.2099C48.6468 42.973 41.0643 45.0731 39.7704 48.2028C39.1149 50.173 38.5722 52.1789 38.1448 54.2108L25.8424 54.1058C25.4536 52.066 24.9451 50.051 24.3195 48.071C23.087 44.9197 15.5335 42.6906 14.2644 30.9039C13.4252 23.159 19.3462 10.9927 32.3648 11.1038C45.3835 11.215 51.0879 23.4803 50.1246 31.2099Z" fill="#FFC727"/>
<path d="M28.9668 54.9344L25.4834 35.3335" stroke="white" stroke-miterlimit="10"/>
<path d="M35.0146 54.9873L38.832 35.4487" stroke="white" stroke-miterlimit="10"/>
<path d="M25.7892 36.0846C25.7892 36.0846 26.4794 39.9228 28.2147 39.9374C29.9499 39.952 31.6255 34.2543 29.348 34.2348C27.0705 34.2153 29.2114 41.7174 32.1037 41.7421C34.996 41.7667 36.7228 34.2977 34.6983 34.2804C32.6738 34.2631 33.2621 40.2335 36.0459 40.2573C37.5397 40.2701 38.6395 36.4372 38.6395 36.4372" stroke="white" stroke-width="0.5" stroke-miterlimit="10"/>
<path d="M39.5913 53.6955L24.4121 53.5659L24.3868 56.5324L39.566 56.662L39.5913 53.6955Z" fill="#455A64"/>
<path d="M39.562 57.1417L24.3828 57.0122L24.3575 59.9786L39.5367 60.1081L39.562 57.1417Z" fill="#455A64"/>
<path d="M39.5327 60.5874L24.3535 60.458L24.3282 63.4244L39.5075 63.5538L39.5327 60.5874Z" fill="#455A64"/>
<path d="M32.1754 8.98955C31.9565 8.26672 31.8475 7.51507 31.8521 6.75984C31.8315 6.00475 31.9258 5.25092 32.1319 4.5242C32.352 5.24674 32.461 5.99855 32.4552 6.75386C32.4744 7.5089 32.3801 8.26255 32.1754 8.98955Z" fill="#263238"/>
<path d="M21.9568 11.7462C21.4059 11.2296 20.9357 10.6331 20.5621 9.97679C20.1667 9.33319 19.8715 8.63322 19.6865 7.90088C20.2385 8.41652 20.7088 9.01311 21.0813 9.67019C21.4755 10.3144 21.7706 11.0142 21.9568 11.7462Z" fill="#263238"/>
<path d="M14.4853 19.2415C13.7499 19.0696 13.0445 18.7882 12.3927 18.4066C11.7286 18.0469 11.123 17.5883 10.5967 17.0466C11.3325 17.2172 12.0381 17.4987 12.6892 17.8815C13.3526 18.2423 13.9581 18.7008 14.4853 19.2415Z" fill="#263238"/>
<path d="M11.7629 29.4676C11.0401 29.6864 10.2885 29.7954 9.53324 29.7908C8.77815 29.8114 8.02433 29.7171 7.2976 29.511C8.02018 29.2909 8.77202 29.1819 9.52736 29.1878C10.2824 29.1685 11.036 29.2628 11.7629 29.4676Z" fill="#263238"/>
<path d="M14.5185 39.6859C14.0019 40.2369 13.4054 40.7071 12.7491 41.0807C12.1055 41.4761 11.4055 41.7713 10.6731 41.9563C11.1888 41.4043 11.7854 40.934 12.4425 40.5615C13.0867 40.1673 13.7865 39.8721 14.5185 39.6859Z" fill="#263238"/>
<path d="M49.9318 39.6287C50.6672 39.8006 51.3726 40.0821 52.0243 40.4637C52.6885 40.8234 53.2941 41.282 53.8204 41.8238C53.0847 41.6531 52.3791 41.3716 51.7279 40.9888C51.0644 40.628 50.4589 40.1695 49.9318 39.6287Z" fill="#263238"/>
<path d="M52.6531 29.4027C53.3759 29.1839 54.1275 29.075 54.8827 29.0796C55.6378 29.059 56.3916 29.1533 57.1184 29.3594C56.3958 29.5795 55.644 29.6885 54.8887 29.6826C54.1337 29.7019 53.38 29.6075 52.6531 29.4027Z" fill="#263238"/>
<path d="M49.8978 19.1847C50.4143 18.6338 51.0108 18.1636 51.6671 17.7899C52.3107 17.3946 53.0107 17.0994 53.7431 16.9145C53.2274 17.4664 52.6308 17.9367 51.9736 18.3092C51.3295 18.7034 50.6297 18.9985 49.8978 19.1847Z" fill="#263238"/>
<path d="M42.4023 11.713C42.5742 10.9776 42.8556 10.2722 43.2372 9.62045C43.5969 8.95629 44.0555 8.35067 44.5972 7.82434C44.4266 8.56016 44.1451 9.26575 43.7623 9.91692C43.4015 10.5804 42.9431 11.1859 42.4023 11.713Z" fill="#263238"/>
</svg>
