<svg width="42" height="58" viewBox="0 0 42 58" fill="none" xmlns="http://www.w3.org/2000/svg">
<path d="M22.5001 11.6001L13.5 24.6501H19.5V33.3501L28.5001 20.3001H22.5001V11.6001Z" fill="white"/>
<path fill-rule="evenodd" clip-rule="evenodd" d="M41.8648 22.1459C41.4096 25.8801 39.8568 29.4101 37.3903 32.3176C35.9472 34.0214 32.2797 38.889 31.4997 42.05H10.4996C9.71956 38.8861 6.04754 34.0185 4.60453 32.3133C2.1392 29.4044 0.587948 25.8734 0.134497 22.1386C-0.312562 18.4118 0.360259 14.6393 2.07251 11.2723C3.80085 7.87964 6.48746 5.02923 9.82156 3.05081C13.1846 1.05305 17.0553 -0.00309433 21.0026 6.80978e-06C24.9597 6.80978e-06 28.8357 1.05851 32.1837 3.05516C35.517 5.03434 38.2025 7.88524 39.9298 11.2781C41.6413 14.6458 42.3131 18.4188 41.8648 22.1459ZM29.3742 39.15H12.6236C11.9846 37.7247 11.1311 36.2964 10.3361 35.0828C9.28995 33.4878 8.15215 31.9508 6.92804 30.479C4.82534 27.999 3.50208 24.9883 3.11502 21.8037C2.73397 18.6299 3.30681 15.4171 4.76503 12.5498C6.24419 9.64849 8.54284 7.21131 11.3951 5.52016C14.285 3.80404 17.611 2.89699 21.0026 2.90001C24.4077 2.90001 27.7377 3.81206 30.6102 5.52451C33.4614 7.21602 35.759 9.65318 37.2373 12.5541C38.6947 15.4222 39.2665 18.6355 38.8843 21.8095C38.4958 24.9934 37.1715 28.003 35.0682 30.4819C33.8435 31.953 32.7062 33.49 31.6617 35.0857C30.8667 36.2993 30.0147 37.7247 29.3757 39.15H29.3742Z" fill="white"/>
<path d="M10.5 46.4002C10.5 46.0156 10.658 45.6468 10.9393 45.3749C11.2206 45.103 11.6022 44.9502 12 44.9502H30.0001C30.398 44.9502 30.7795 45.103 31.0608 45.3749C31.3421 45.6468 31.5001 46.0156 31.5001 46.4002C31.5001 46.7848 31.3421 47.1536 31.0608 47.4255C30.7795 47.6974 30.398 47.8502 30.0001 47.8502H12C11.6022 47.8502 11.2206 47.6974 10.9393 47.4255C10.658 47.1536 10.5 46.7848 10.5 46.4002Z" fill="white"/>
<path fill-rule="evenodd" clip-rule="evenodd" d="M10.5 50.75H31.5001V55.1C31.5001 55.8691 31.1841 56.6068 30.6215 57.1506C30.0588 57.6945 29.2958 58 28.5001 58H13.5C12.7044 58 11.9413 57.6945 11.3787 57.1506C10.8161 56.6068 10.5 55.8691 10.5 55.1V50.75ZM13.5 53.65H28.5001V55.1H13.5V53.65Z" fill="white"/>
</svg>
