<svg width="42" height="42" viewBox="0 0 42 42" fill="none" xmlns="http://www.w3.org/2000/svg">
<g clip-path="url(#clip0_168_2245)">
<path d="M7.875 6.5625C7.875 4.82202 8.5664 3.15282 9.79711 1.92211C11.0278 0.691404 12.697 0 14.4375 0C16.178 0 17.8472 0.691404 19.0779 1.92211C20.3086 3.15282 21 4.82202 21 6.5625C21 4.82202 21.6914 3.15282 22.9221 1.92211C24.1528 0.691404 25.822 0 27.5625 0C29.303 0 30.9722 0.691404 32.2029 1.92211C33.4336 3.15282 34.125 4.82202 34.125 6.5625V6.57825C34.125 6.762 34.125 7.287 34.0252 7.875H39.375C40.0712 7.875 40.7389 8.15156 41.2312 8.64384C41.7234 9.13613 42 9.80381 42 10.5V15.75C42 16.4462 41.7234 17.1139 41.2312 17.6062C40.7389 18.0984 40.0712 18.375 39.375 18.375V38.0625C39.375 39.1068 38.9602 40.1083 38.2217 40.8467C37.4833 41.5852 36.4818 42 35.4375 42H6.5625C5.51821 42 4.51669 41.5852 3.77827 40.8467C3.03984 40.1083 2.625 39.1068 2.625 38.0625V18.375C1.92881 18.375 1.26113 18.0984 0.768845 17.6062C0.276562 17.1139 0 16.4462 0 15.75V10.5C0 9.80381 0.276562 9.13613 0.768845 8.64384C1.26113 8.15156 1.92881 7.875 2.625 7.875H7.97475C7.90542 7.44629 7.87205 7.01252 7.875 6.57825V6.5625ZM10.6785 7.875H18.375V6.5625C18.375 6.04542 18.2732 5.5334 18.0753 5.05568C17.8774 4.57796 17.5874 4.1439 17.2217 3.77827C16.8561 3.41264 16.422 3.1226 15.9443 2.92472C15.4666 2.72685 14.9546 2.625 14.4375 2.625C13.9204 2.625 13.4084 2.72685 12.9307 2.92472C12.453 3.1226 12.0189 3.41264 11.6533 3.77827C11.2876 4.1439 10.9976 4.57796 10.7997 5.05568C10.6018 5.5334 10.5 6.04542 10.5 6.5625C10.5 6.78562 10.5052 7.28175 10.6181 7.69125C10.6339 7.75385 10.6541 7.81525 10.6785 7.875ZM23.625 7.875H31.3215C31.3456 7.81514 31.3658 7.75376 31.3819 7.69125C31.4947 7.28175 31.5 6.78562 31.5 6.5625C31.5 5.51821 31.0852 4.51669 30.3467 3.77827C29.6083 3.03984 28.6068 2.625 27.5625 2.625C26.5182 2.625 25.5167 3.03984 24.7783 3.77827C24.0398 4.51669 23.625 5.51821 23.625 6.5625V7.875ZM2.625 10.5V15.75H18.375V10.5H2.625ZM23.625 10.5V15.75H39.375V10.5H23.625ZM36.75 18.375H23.625V39.375H35.4375C35.7856 39.375 36.1194 39.2367 36.3656 38.9906C36.6117 38.7444 36.75 38.4106 36.75 38.0625V18.375ZM18.375 39.375V18.375H5.25V38.0625C5.25 38.4106 5.38828 38.7444 5.63442 38.9906C5.88056 39.2367 6.2144 39.375 6.5625 39.375H18.375Z" fill="white"/>
</g>
<defs>
<clipPath id="clip0_168_2245">
<rect width="42" height="42" fill="white"/>
</clipPath>
</defs>
</svg>
