<svg width="96" height="42" viewBox="0 0 96 42" fill="none" xmlns="http://www.w3.org/2000/svg">
<path d="M55.9677 0.289476L40.0294 0.270508C38.2762 0.270508 36.8418 1.97761 36.8418 4.06408V38.2062C36.8418 40.2927 38.2762 41.9998 40.0294 41.9998H55.9677C57.7209 41.9998 59.1553 40.2927 59.1553 38.2062V4.06408C59.1553 1.97761 57.7209 0.289476 55.9677 0.289476ZM55.9677 34.4127H40.0294V7.85765H55.9677V34.4127Z" fill="white"/>
<ellipse cx="48.7342" cy="38.2063" rx="2.20683" ry="2.43872" fill="#089E14"/>
<g clip-path="url(#clip0_168_2225)">
<path d="M24.6284 38.7324L27.5708 35.4808C20.2589 27.4005 20.2589 14.2964 27.5708 6.2161L24.6284 2.96447C15.6981 12.8332 15.6981 28.8475 24.6284 38.7324ZM30.5133 32.2292L33.4557 28.9775C31.5058 26.8209 30.4105 23.8971 30.4105 20.8484C30.4105 17.7998 31.5058 14.876 33.4557 12.7194L30.5133 9.46774C24.8344 15.7434 24.8344 25.9373 30.5133 32.2292Z" fill="white"/>
</g>
<g clip-path="url(#clip1_168_2225)">
<path d="M71.5874 3.1084L68.645 6.36003C75.9569 14.4403 75.9569 27.5444 68.645 35.6247L71.5874 38.8763C80.5177 29.0076 80.5177 12.9934 71.5874 3.1084ZM65.7025 9.61166L62.7601 12.8633C64.71 15.0199 65.8053 17.9438 65.8053 20.9924C65.8053 24.041 64.71 26.9649 62.7601 29.1215L65.7025 32.3731C71.3815 26.0974 71.3815 15.9036 65.7025 9.61166Z" fill="white"/>
</g>
<defs>
<clipPath id="clip0_168_2225">
<rect width="39.0196" height="35.3093" fill="white" transform="translate(0 40.2627) rotate(-90)"/>
</clipPath>
<clipPath id="clip1_168_2225">
<rect width="39.0196" height="35.3093" fill="white" transform="translate(96) rotate(90)"/>
</clipPath>
</defs>
</svg>
