<svg width="208" height="113" viewBox="0 0 208 113" fill="none" xmlns="http://www.w3.org/2000/svg">
<path d="M159.74 71.8502C155.948 72.2811 152.845 72.3242 150.26 72.1519C150.217 72.1519 150.174 72.1519 150.174 72.1519C149.915 72.1519 149.699 72.1088 149.484 72.1088C149.182 72.0657 148.881 72.0657 148.579 72.0226C148.364 71.9795 148.148 71.9795 147.976 71.9364C147.933 71.9364 147.889 71.9364 147.846 71.8933C147.674 71.8502 147.459 71.8502 147.286 71.8071C147.243 71.8071 147.2 71.8071 147.114 71.764C146.726 71.6778 146.338 71.6347 145.95 71.5485C145.864 71.5054 145.735 71.5054 145.649 71.4623C145.476 71.4192 145.347 71.3761 145.175 71.333C144.959 71.29 144.787 71.2469 144.614 71.1607C144.442 71.1176 144.27 71.0745 144.097 70.9883C143.752 70.9021 143.451 70.7728 143.106 70.6435C142.934 70.6004 142.804 70.5142 142.632 70.4712C142.029 70.2557 141.512 69.9971 141.037 69.7386C140.736 69.5662 140.434 69.4369 140.089 69.3076C140.003 69.2645 139.874 69.2214 139.745 69.1783C139.529 69.0921 139.314 69.006 139.098 68.9198C138.71 68.7474 138.323 68.6181 137.892 68.4457C137.719 68.4026 137.547 68.3164 137.374 68.2733C137.116 68.1872 136.857 68.101 136.599 68.0148C136.297 67.9286 136.039 67.8424 135.737 67.7562C135.478 67.67 135.177 67.6269 134.875 67.5407C134.573 67.4545 134.229 67.3684 133.927 67.3253C133.754 67.2822 133.582 67.2391 133.41 67.196C132.72 67.0236 131.988 66.8943 131.212 66.765C130.824 66.6788 130.393 66.6358 130.005 66.5496C129.79 66.5065 129.574 66.5065 129.359 66.4634C129.143 66.4203 128.928 66.4203 128.712 66.3772C128.54 66.3341 128.368 66.3341 128.195 66.291C128.023 66.291 127.851 66.2479 127.678 66.2479C127.42 66.2048 127.161 66.1617 126.859 66.1617C126.773 66.1617 126.644 66.1186 126.515 66.1186C126.256 66.0755 125.997 66.0755 125.739 66.0324C124.963 65.9462 124.144 65.86 123.326 65.7739C113.242 64.8689 107.381 66.1186 103.89 66.0755C103.804 66.0755 103.718 66.0755 103.588 66.0755C103.416 66.0755 103.244 66.0755 103.071 66.0755C103.028 66.0755 102.985 66.0755 102.942 66.0755C102.77 66.0755 102.64 66.0755 102.468 66.0755C101.735 66.0324 101.003 65.9893 100.313 65.817C100.227 65.817 100.141 65.7739 100.055 65.7308C99.9684 65.7308 99.8822 65.6877 99.796 65.6446C99.5375 65.5584 99.322 65.4722 99.1065 65.3429C99.0203 65.2998 98.9773 65.2567 98.9342 65.2567C98.848 65.2136 98.8049 65.1705 98.7187 65.1274C98.6756 65.0843 98.5894 65.0413 98.5463 64.9982C98.5032 64.9551 98.4601 64.912 98.417 64.8689C98.3739 64.8258 98.2877 64.7827 98.2446 64.6965C98.2015 64.6534 98.1584 64.6103 98.1584 64.5672C98.1154 64.5241 98.1154 64.481 98.0723 64.481C98.0292 64.4379 97.9861 64.3948 97.943 64.3086C97.8999 64.2656 97.8568 64.2225 97.8568 64.1363L97.8137 64.0932C97.8137 64.0932 97.8137 64.0501 97.7706 64.0501C97.6844 63.9208 97.6413 63.7484 97.5551 63.6191C97.512 63.5329 97.512 63.4468 97.4689 63.3606C97.3827 63.0589 97.3397 62.7572 97.2966 62.4125C97.2966 62.2832 97.2966 62.1539 97.2966 62.0246C97.2966 61.8523 97.2966 61.6799 97.3397 61.5075C97.3397 61.3351 97.3828 61.2058 97.3828 61.0335C97.4258 60.8611 97.4258 60.6887 97.4689 60.5163C97.5551 60.1285 97.6413 59.6975 97.7706 59.2666C97.8137 59.0942 97.8568 58.9649 97.8999 58.7926C97.943 58.7064 97.9861 58.5771 98.0292 58.4909C98.0292 58.4478 98.0723 58.4047 98.0723 58.3616C98.1154 58.2754 98.1585 58.1461 98.2015 58.0599C98.2446 58.0169 98.2446 57.9738 98.2877 57.8876C98.3308 57.8014 98.3739 57.7152 98.417 57.6721C98.4601 57.5859 98.5032 57.4997 98.5463 57.4566C98.5894 57.4135 98.6325 57.3273 98.6325 57.2843C98.7187 57.155 98.7618 57.0257 98.848 56.9395C98.9342 56.8102 99.0634 56.6809 99.1496 56.5516C99.2358 56.4655 99.322 56.3362 99.4082 56.25C99.4513 56.2069 99.4513 56.1638 99.4944 56.1207C99.5806 55.9914 99.7099 55.9052 99.796 55.7759C99.9253 55.6467 100.098 55.4743 100.27 55.345C100.356 55.2588 100.442 55.1726 100.529 55.1295L100.572 55.0864C100.701 55.0002 100.83 54.871 100.96 54.7848C101.089 54.6986 101.261 54.5693 101.391 54.4831C101.52 54.3969 101.692 54.3107 101.821 54.2245C102.252 53.966 102.726 53.7074 103.244 53.4919C103.459 53.4057 103.675 53.3195 103.89 53.2334C104.536 52.9748 105.183 52.7593 105.829 52.5869C106.26 52.4577 106.691 52.3715 107.122 52.2422C107.338 52.1991 107.553 52.156 107.769 52.1129C108.199 52.0267 108.674 51.9405 109.104 51.8974C109.277 51.8543 109.406 51.8543 109.578 51.8112C111.216 51.5958 112.811 51.4665 114.103 51.3803C119.361 51.0786 125.006 49.872 126.946 49.0963C128.885 48.3206 130.609 46.1228 130.695 45.4333C130.738 44.7007 130.738 42.8045 129.057 39.8741C127.635 37.4177 124.834 34.7889 121.257 32.1602C120.912 32.1602 120.524 32.1602 120.223 32.2033C120.438 32.3756 120.654 32.548 120.869 32.6773C124.748 35.5646 127.247 38.021 128.497 40.2188C129.574 42.115 130.135 43.9681 130.048 45.3902C129.962 45.8642 128.497 47.8035 126.73 48.5361C124.92 49.2687 119.361 50.4753 114.103 50.777C112.811 50.8632 111.302 50.9494 109.708 51.1648L96.7363 44.7007C96.564 45.0454 96.3916 45.4333 96.1761 45.8642C93.849 51.2079 89.8843 63.5329 98.7618 71.1176C104.278 75.8149 119.059 68.5319 118.37 85.5542C118.025 94.0438 124.575 99.129 132.763 101.413C133.41 101.585 134.056 101.758 134.703 101.887L145.002 96.6726C145.045 96.6726 145.088 96.6295 145.131 96.6295L157.887 90.2084L159.74 89.2604C162.24 88.0106 163.791 85.468 163.791 82.6669C163.791 79.9089 162.326 77.4956 159.87 76.2889L159.827 76.2458L153.104 72.8844C155.129 72.8844 157.37 72.7552 159.74 72.4966C168.92 71.4623 169.523 71.6778 176.418 74.048C177.194 74.3066 178.099 74.6082 179.047 74.953C180.124 75.2977 181.072 75.6425 181.977 75.9442L182.968 76.2889C183.098 76.1165 183.27 75.9011 183.399 75.7718C182.193 75.3839 180.814 74.8668 179.262 74.3497C169.825 71.1176 170.169 70.6866 159.74 71.8502Z" fill="#F6F8E3"/>
<path d="M182.624 34.3575C177.711 30.91 162.714 19.8778 159.913 16.7319C156.422 12.8103 153.793 12.681 150.863 13.1981C149.656 13.4136 147.803 13.2843 145.649 12.4225C143.494 11.5606 140.219 12.1208 135.995 14.3617C133.97 13.6291 131.901 12.8534 130.652 12.3794C130.522 12.3363 130.393 12.2932 130.264 12.2501C133.022 15.1374 136.599 18.0678 140.176 19.1021C147.933 21.3861 154.224 23.9718 155.388 31.2978C156.508 38.236 167.282 31.5564 197.146 47.1997C198.698 46.1654 200.206 45.6052 201.671 45.519C202.835 45.4759 203.869 45.7776 204.688 46.424C200.68 43.3212 187.192 37.5465 182.624 34.3575Z" fill="#F6F8E3"/>
<path d="M75.7062 37.5464L28.647 61.2053L19.7696 56.7666L18.5629 56.1633L65.6221 32.5044L66.8288 33.1077L75.7062 37.5464Z" fill="#9BBA3B"/>
<path d="M102.166 69.2214C102.08 69.0059 101.822 68.9197 101.606 69.049L75.9217 81.9774C75.7062 82.0636 75.6201 82.3221 75.7493 82.5376C75.8355 82.6669 75.9648 82.7962 76.1372 82.7962C76.2234 82.7962 76.2665 82.7962 76.3096 82.7531L101.994 69.8247C102.166 69.6954 102.252 69.4369 102.166 69.2214Z" fill="#ABABB6"/>
<path d="M113.586 75.4696L97.3827 83.6144C97.1672 83.7006 97.0811 83.9592 97.2103 84.1746C97.2965 84.3039 97.4258 84.4332 97.5982 84.4332C97.6844 84.4332 97.7275 84.4332 97.7706 84.3901L113.974 76.2453C114.19 76.1591 114.276 75.9005 114.146 75.685C114.06 75.4696 113.802 75.3834 113.586 75.4696Z" fill="#ABABB6"/>
<path d="M102.037 72.1511C101.951 71.9356 101.692 71.8494 101.477 71.9787L78.7658 83.3987C78.5504 83.4849 78.4642 83.7435 78.5935 83.959C78.6796 84.0883 78.8089 84.2176 78.9813 84.2176C79.0675 84.2176 79.1106 84.2176 79.1537 84.1745L101.864 72.7544C102.08 72.6251 102.166 72.3666 102.037 72.1511Z" fill="#ABABB6"/>
<path d="M159.87 76.461L150.475 71.7637C150.432 71.7206 150.389 71.7206 150.346 71.7206C150.303 71.7206 150.303 71.7206 150.26 71.7206L150.217 72.1515V71.7206C149.958 71.7206 149.743 71.6775 149.527 71.6775C149.225 71.6344 148.924 71.6344 148.622 71.5913C148.407 71.5913 148.234 71.5482 148.062 71.5051L147.89 71.462C147.717 71.4189 147.502 71.4189 147.329 71.3758L147.157 71.3327C146.812 71.2896 146.424 71.2034 146.036 71.1172L145.735 71.0311C145.606 70.988 145.433 70.9449 145.304 70.9449C145.131 70.9018 144.916 70.8587 144.744 70.7725C144.571 70.7294 144.399 70.6863 144.227 70.6001C143.882 70.5139 143.58 70.3846 143.278 70.2985C143.149 70.2554 142.977 70.2123 142.847 70.1261C142.373 69.9106 141.856 69.6951 141.253 69.4366C140.951 69.2642 140.65 69.1349 140.305 68.9625L140.176 68.9194C140.089 68.8763 140.046 68.8763 139.96 68.8332C139.745 68.7471 139.529 68.6609 139.314 68.5747C139.314 68.5747 139.314 68.5747 139.271 68.5747C139.184 68.5316 139.055 68.4885 138.969 68.4454C138.883 68.4023 138.797 68.3592 138.71 68.3592C138.495 68.273 138.323 68.1868 138.107 68.1437C137.719 68.0144 137.288 67.8852 136.771 67.7128C136.469 67.6266 136.211 67.5404 135.866 67.4542C135.608 67.368 135.392 67.3249 135.134 67.2387L135.004 67.1957C134.703 67.1095 134.401 67.0233 134.056 66.9802C133.884 66.9371 133.711 66.894 133.539 66.8509C132.806 66.6785 132.074 66.5492 131.298 66.4199C130.953 66.3769 130.609 66.2907 130.221 66.2476L130.048 66.2045C129.919 66.2045 129.79 66.1614 129.661 66.1614L128.712 66.0321C128.54 65.989 128.368 65.989 128.195 65.9459L127.678 65.9028C127.42 65.8597 127.161 65.8166 126.859 65.8166L126.515 65.7735C126.256 65.7304 125.998 65.7304 125.739 65.6873C124.963 65.6012 124.144 65.515 123.283 65.4288C120.654 65.2133 118.37 65.1271 116.258 65.1271C113.242 65.1271 110.742 65.2995 108.674 65.4719C108.975 62.9293 108.2 60.2574 107.208 58.8784C106.734 58.232 106.174 57.8441 105.657 57.758C103.933 57.5425 100.917 58.1027 98.5033 58.6629V58.6198C98.5463 58.5337 98.5894 58.4475 98.6325 58.3182C98.6325 58.2751 98.6756 58.232 98.7187 58.1889C98.7618 58.1458 98.7618 58.0596 98.848 57.9734C98.8911 57.9303 98.9342 57.8441 98.9342 57.801C98.9342 57.801 98.9342 57.758 98.9773 57.758C99.0204 57.7149 99.0204 57.6718 99.0635 57.5856C99.1066 57.4994 99.1928 57.3701 99.279 57.2839C99.3651 57.1546 99.4513 57.0253 99.5806 56.8961C99.6668 56.8099 99.753 56.7237 99.8392 56.5944L99.8823 56.5513L99.9254 56.5082C100.012 56.422 100.098 56.2928 100.227 56.2066C100.356 56.0773 100.486 55.948 100.658 55.8187C100.744 55.7325 100.83 55.6894 100.917 55.6032L100.96 55.5601C101.089 55.474 101.175 55.3878 101.347 55.3016C101.477 55.2154 101.606 55.1292 101.778 55.043C101.908 54.9568 102.037 54.8706 102.209 54.7844C102.64 54.5259 103.071 54.3104 103.545 54.0949C103.545 54.0949 103.545 54.0949 103.588 54.0949C103.804 54.0087 103.976 53.9226 104.192 53.8364C104.795 53.5778 105.441 53.4054 106.088 53.1899H106.131C106.519 53.1038 106.907 52.9745 107.381 52.8883C107.596 52.8452 107.812 52.8021 108.027 52.759C108.458 52.6728 108.889 52.5866 109.32 52.5435C109.492 52.5004 109.622 52.5004 109.751 52.4573C109.923 52.4142 110.096 52.285 110.096 52.1126C110.139 51.9402 110.053 51.7247 109.88 51.6385L63.2089 28.3244C58.6839 26.0404 53.254 26.0835 48.686 28.3675L9.08218 48.3634C7.61697 49.096 6.71198 50.5612 6.71198 52.2419C6.71198 53.8795 7.61697 55.3447 9.08218 56.0773L12.4436 57.758C11.8833 59.0508 11.7109 60.4729 11.9695 61.8519L9.12528 60.4298C5.46225 58.6198 4.64345 54.2242 6.53961 51.1645L6.19485 51.3369C5.93628 51.4662 5.67772 51.5954 5.46225 51.7678C1.45446 54.4397 1.71302 60.6453 6.19485 62.8862L14.8568 67.1957L102.08 110.721C106.519 112.962 111.776 112.919 116.215 110.678L155 91.1131C155.129 91.0269 155.302 90.9407 155.431 90.8545L144.916 96.1551H144.873L120.18 108.653C115.698 110.893 110.397 110.937 105.915 108.696L102.296 106.886C102.339 106.799 102.339 106.713 102.339 106.584C102.037 105.291 102.123 103.912 102.597 102.706L106.131 104.472C108.415 105.593 110.914 106.196 113.414 106.196C115.957 106.196 118.456 105.593 120.783 104.472L159.913 84.692C161.464 83.9163 162.412 82.3649 162.412 80.6411C162.369 78.7881 161.421 77.2367 159.87 76.461ZM154.181 77.1936C154.914 77.5383 155.345 78.2709 155.345 79.0897C155.345 79.9085 154.914 80.598 154.181 80.9859L118.025 99.1287C114.147 101.068 109.492 101.111 105.614 99.1287L92.8148 92.7507L138.926 69.5659L154.181 77.1936ZM125.739 66.5061C125.998 66.5492 126.256 66.5492 126.472 66.5923L126.816 66.6354C127.075 66.6785 127.333 66.6785 127.592 66.7216L128.109 66.7647C128.282 66.7647 128.454 66.8078 128.626 66.8509L129.574 66.9802C129.704 66.9802 129.833 67.0233 129.919 67.0233C130.35 67.1095 130.738 67.1526 131.126 67.2387C131.858 67.368 132.634 67.4973 133.324 67.6697C133.496 67.7128 133.668 67.7559 133.841 67.799C134.142 67.8852 134.487 67.9283 134.789 68.0144L134.918 68.0575C135.177 68.1437 135.435 68.1868 135.651 68.273C135.952 68.3592 136.254 68.4454 136.513 68.5316H136.556L136.728 68.5747C136.9 68.6178 137.073 68.704 137.245 68.747L137.935 69.0918L91.8236 92.2766L65.3636 79.0466L97.0811 63.1017C97.1242 63.231 97.1242 63.3602 97.1673 63.4464C97.1673 63.4464 97.1673 63.4464 97.1673 63.4895C97.2104 63.6188 97.2104 63.705 97.2535 63.7912C97.2966 63.9636 97.3828 64.1359 97.469 64.3083C97.5121 64.3514 97.5121 64.3945 97.5552 64.4376C97.5983 64.5238 97.6414 64.5669 97.6414 64.61C97.6845 64.6531 97.7275 64.7393 97.7706 64.7824L97.8137 64.8255L97.8999 64.9116C97.8999 64.9547 97.943 64.9547 97.943 64.9547L97.9861 64.9978L98.0292 65.0409C98.0723 65.084 98.1585 65.1702 98.2016 65.2133C98.2447 65.2564 98.3309 65.2995 98.374 65.3426C98.4602 65.3857 98.5032 65.4288 98.5463 65.4719C98.6325 65.515 98.7187 65.6012 98.7618 65.6012C98.848 65.6442 98.8911 65.6873 98.9773 65.6873C99.1928 65.8166 99.4944 65.9028 99.753 65.989C99.8392 66.0321 99.8823 66.0321 99.9685 66.0321H100.012H100.055C100.098 66.0321 100.141 66.0321 100.141 66.0752L100.227 66.1183C100.83 66.2476 101.563 66.3338 102.425 66.3768C102.597 66.3768 102.727 66.3768 102.942 66.3768C102.985 66.3768 102.985 66.3768 103.028 66.3768H103.804C103.933 66.3768 104.106 66.3768 104.235 66.3768C105.269 66.3768 106.433 66.2907 107.898 66.1614C107.984 66.1614 108.113 66.1614 108.2 66.1183C111.733 65.8166 116.517 65.4719 123.239 66.0752C124.144 66.3338 124.963 66.42 125.739 66.5061ZM105.657 58.5768C105.959 58.6199 106.303 58.8784 106.605 59.3525C107.51 60.6022 108.243 63.1448 107.898 65.515C106.26 65.6442 104.967 65.7304 103.89 65.7304H103.114H103.071H102.985C102.813 65.7304 102.683 65.7304 102.511 65.7304C101.692 65.6873 101.003 65.6012 100.486 65.4719L100.227 65.3857C100.141 65.3857 100.098 65.3426 100.012 65.2995C99.7961 65.2133 99.5806 65.1271 99.3651 65.0409C99.3221 64.9978 99.2359 64.9978 99.1928 64.9547C99.1497 64.9116 99.1066 64.9116 99.0204 64.8255C98.9773 64.7824 98.9342 64.7824 98.8911 64.7393C98.8911 64.7393 98.848 64.7393 98.848 64.6962C98.8049 64.6531 98.8049 64.6531 98.7618 64.61C98.7187 64.5669 98.6756 64.5238 98.6325 64.4807L98.5894 64.4376L98.5463 64.3945L98.4602 64.3083C98.4171 64.2652 98.4171 64.2221 98.374 64.179C98.3309 64.1359 98.3309 64.0928 98.3309 64.0928L98.2878 64.0067C98.2016 63.8774 98.1585 63.7481 98.1154 63.6188C98.0723 63.5326 98.0723 63.4464 98.0292 63.4033C97.943 63.1448 97.8999 62.8431 97.8999 62.5414C97.8999 62.4122 97.8999 62.326 97.8999 62.1967C97.8999 62.0243 97.8999 61.8519 97.8999 61.6796C97.8999 61.5503 97.943 61.3779 97.943 61.2486C97.943 61.0762 97.9861 60.9469 98.0292 60.7746C98.0723 60.4298 98.1585 60.0851 98.2878 59.6541C101.692 58.7491 104.235 58.4044 105.657 58.5768ZM100.486 54.7844C100.442 54.7844 100.443 54.8275 100.399 54.8706C100.313 54.9568 100.227 55.043 100.141 55.0861C99.9685 55.2154 99.7961 55.3878 99.6668 55.517C99.5375 55.6463 99.4513 55.7325 99.322 55.9049C99.279 55.948 99.2789 55.9911 99.2359 55.9911C99.1497 56.1204 99.0204 56.2066 98.9773 56.2927C98.848 56.422 98.7618 56.5944 98.6756 56.7237C98.5894 56.853 98.5032 56.9823 98.4171 57.1115C98.374 57.1977 98.3309 57.2408 98.2878 57.327C98.2447 57.4132 98.2016 57.4994 98.1585 57.5425C98.1154 57.6287 98.0723 57.7149 98.0292 57.801C97.9861 57.8872 97.943 57.9303 97.943 57.9734C97.8999 58.0596 97.8568 58.1889 97.8137 58.2751C97.7706 58.3182 97.7706 58.3613 97.7706 58.4475C97.7275 58.5768 97.6845 58.6629 97.6414 58.7922C97.5983 58.9646 97.5121 59.137 97.469 59.3094C97.3828 59.5679 97.3397 59.7834 97.2966 59.9989C97.2535 60.2143 97.2104 60.4298 97.1673 60.6022C97.1242 60.7746 97.1242 60.947 97.0811 61.1193C97.038 61.2917 97.038 61.4641 97.038 61.5934C97.038 61.7658 96.9949 61.9812 96.9949 62.1536C96.9949 62.1967 96.9949 62.2398 96.9949 62.2398L64.4155 78.6157L14.5121 53.7071C13.7364 53.3192 13.3054 52.5866 13.3054 51.7678C13.3054 50.9059 13.7364 50.1733 14.5121 49.7855L20.2867 46.8981L21.321 47.4153C23.1741 48.3634 25.415 48.3203 27.2681 47.4153L48.0396 36.9864C48.686 36.6417 49.117 35.9952 49.117 35.2626C49.117 34.53 48.686 33.8405 48.0396 33.4958L47.5225 33.2372L52.2629 30.867C55.064 29.4449 58.4254 29.4449 61.2265 30.867L104.838 52.6297C104.493 52.759 104.192 52.8452 103.89 52.9745C103.675 53.0607 103.459 53.1468 103.244 53.233C103.244 53.233 103.201 53.233 103.201 53.2761C102.683 53.4916 102.252 53.7502 101.822 54.0087C101.649 54.0949 101.52 54.1811 101.347 54.3104C101.175 54.3966 101.046 54.5259 100.917 54.6121C100.744 54.569 100.572 54.6982 100.486 54.7844ZM101.391 106.369L17.8304 64.6531L12.7883 62.1536C12.8314 62.0674 12.8314 61.9812 12.8314 61.895C12.5728 60.6022 12.7021 59.2232 13.2193 58.0165L101.778 102.231C101.261 103.524 101.089 104.946 101.391 106.369ZM159.482 83.787L120.352 103.567C116 105.765 110.828 105.765 106.476 103.61L102.511 101.628L13.2193 57.0254L9.47003 55.1723C8.26339 54.569 7.57387 53.4485 7.57387 52.1126C7.57387 50.7767 8.26339 49.6131 9.47003 49.0098L49.0739 29.0139C51.2286 27.9366 53.5988 27.3763 55.969 27.3763C58.2961 27.3763 60.6663 27.8935 62.821 28.9708L108.286 51.6816C108.113 51.7247 107.984 51.7247 107.812 51.7678C107.596 51.8109 107.381 51.854 107.165 51.8971C106.734 51.9833 106.346 52.0695 106.002 52.1988L61.5713 30.0051C58.5116 28.4968 54.8916 28.4968 51.8319 30.0051L46.3158 32.7632C46.1865 32.8493 46.0573 32.9786 46.0573 33.151C46.0573 33.3234 46.1434 33.4527 46.3158 33.5389L47.6087 34.1853C47.9965 34.3577 48.212 34.7455 48.212 35.1764C48.212 35.6074 47.9965 35.9521 47.6087 36.1676L26.8371 46.5965C25.1995 47.4153 23.3034 47.4153 21.6658 46.5965L20.4591 45.9932C20.3298 45.9501 20.2006 45.9501 20.0713 45.9932L14.1242 48.9667C13.09 49.4838 12.4436 50.5612 12.4436 51.7247C12.4436 52.8883 13.09 53.9226 14.1242 54.4397L65.9669 80.2964L90.7462 92.6645L91.6512 93.0954L105.226 99.8613C107.295 100.896 109.535 101.413 111.819 101.413C114.103 101.413 116.344 100.896 118.456 99.8613L154.612 81.7185C155.603 81.2014 156.25 80.2102 156.25 79.0466C156.25 77.9262 155.603 76.8919 154.612 76.3748L145.519 71.8499H145.562L145.864 71.936C146.295 72.0222 146.683 72.1084 147.028 72.1515L147.2 72.1946C147.372 72.2377 147.588 72.2377 147.76 72.2808C147.803 72.2808 147.803 72.2808 147.846 72.2808H147.89C148.105 72.3239 148.32 72.3239 148.493 72.367C148.795 72.4101 149.096 72.4532 149.398 72.4532C149.613 72.4532 149.872 72.4963 150.087 72.4963H150.13L159.439 77.1505C160.689 77.7969 161.464 79.0035 161.464 80.4257C161.507 81.934 160.775 83.1406 159.482 83.787Z" fill="#ABABB6"/>
<path d="M82.2565 2.89855C83.2046 3.3295 85.5317 3.93282 87.2555 4.40686C87.5572 4.49305 87.9019 4.53614 88.2036 4.53614C89.1948 4.53614 90.1428 4.14829 90.8754 3.45878L91.3495 3.02784C91.5219 2.85546 91.5219 2.59689 91.3495 2.42451C91.1771 2.25213 90.9185 2.25213 90.7462 2.42451L90.2721 2.85546C89.4964 3.58806 88.4622 3.84663 87.471 3.58807C85.0146 2.94165 83.3339 2.46761 82.6013 2.12285C82.3427 1.99357 82.0842 1.82119 82.1273 1.21787C82.1273 0.959303 81.9549 0.786922 81.7394 0.743828C81.4808 0.700733 81.3085 0.916203 81.2654 1.13168C81.2223 1.95047 81.567 2.5538 82.2565 2.89855Z" fill="#ABABB6"/>
<path d="M94.7971 31.858C94.8402 31.858 94.8833 31.9011 94.9695 31.9011C95.0557 31.9011 95.1418 31.858 95.228 31.8149C99.5375 28.7983 100.313 27.9795 100.486 27.5486C100.83 26.6436 100.83 25.6093 100.399 24.4889C100.356 24.3596 100.227 24.2734 100.098 24.2303C99.9684 24.1872 99.8391 24.2303 99.7099 24.3165C95.0126 28.195 94.7971 28.669 94.7109 28.8845C94.4523 29.4016 94.323 30.5221 94.5816 31.5563C94.5816 31.6856 94.6678 31.8149 94.7971 31.858ZM95.4435 29.2292C95.5297 29.0569 96.133 28.3674 99.7099 25.3507C99.8391 25.911 99.8822 26.5574 99.6237 27.1607C99.5375 27.3331 98.9773 28.0226 95.228 30.6514C95.228 30.048 95.3573 29.4878 95.4435 29.2292Z" fill="#ABABB6"/>
<path d="M206.067 47.1569C204.99 45.7348 203.481 45.0452 201.671 45.0883C196.285 45.3038 189.562 52.673 186.718 61.5935C184.865 67.4113 185.037 72.755 187.149 75.5561C188.183 76.8921 189.605 77.6247 191.286 77.6247C191.372 77.6247 191.458 77.6247 191.501 77.6247C196.888 77.4092 203.611 70.04 206.455 61.1195C208.351 55.3448 208.179 50.0011 206.067 47.1569ZM205.679 60.8609C202.921 69.4367 196.586 76.5473 191.501 76.7628C189.993 76.8059 188.743 76.2456 187.838 75.039C185.856 72.4533 185.77 67.4113 187.536 61.8521C190.295 53.2763 196.629 46.1657 201.715 45.9502C203.223 45.9071 204.473 46.4674 205.378 47.674C207.36 50.3028 207.446 55.3448 205.679 60.8609Z" fill="#ABABB6"/>
<path d="M29.509 42.9764C29.6382 43.0626 29.8106 43.1057 29.983 43.1057C30.1554 43.1057 30.3278 43.0626 30.457 42.9764L36.7488 39.8305C37.0936 39.6582 37.3091 39.2703 37.3091 38.8824C37.3091 38.4946 37.0936 38.1067 36.7488 37.9344C36.4472 37.8051 36.1024 37.8051 35.8008 37.9344L29.509 41.0803C29.1642 41.2526 28.9487 41.6405 28.9487 42.0283C28.9487 42.4162 29.1642 42.804 29.509 42.9764ZM29.8968 41.856L36.1886 38.7101C36.2317 38.7101 36.2317 38.7101 36.2748 38.7101C36.3179 38.7101 36.3179 38.7101 36.361 38.7101C36.4472 38.7532 36.4472 38.8394 36.4472 38.8824C36.4472 38.9255 36.4472 39.0117 36.361 39.0548L30.0692 42.2007C30.0261 42.2438 29.9399 42.2438 29.8968 42.2007C29.8106 42.1576 29.8106 42.0714 29.8106 42.0283C29.8106 41.9852 29.8106 41.8991 29.8968 41.856Z" fill="#ABABB6"/>
<path d="M20.1574 62.3689L16.8822 60.7313C16.5375 60.5589 16.1927 60.602 15.891 60.7744C15.5894 60.9468 15.417 61.2915 15.417 61.6363C15.417 62.0241 15.6325 62.3689 15.9772 62.5844L19.2524 64.222C19.3817 64.3082 19.5541 64.3513 19.7264 64.3513C19.8988 64.3513 20.1143 64.3082 20.2867 64.1789C20.5883 64.0065 20.7607 63.6617 20.7607 63.317C20.7176 62.886 20.5021 62.5413 20.1574 62.3689ZM19.7695 63.4463C19.7264 63.4463 19.6834 63.4894 19.5972 63.4463L16.322 61.8087C16.2789 61.7656 16.2358 61.7225 16.2358 61.6363C16.2358 61.5501 16.2789 61.507 16.322 61.507C16.322 61.507 16.3651 61.4639 16.4082 61.4639C16.4513 61.4639 16.4513 61.4639 16.4944 61.4639L19.7695 63.1015C19.8126 63.1446 19.8557 63.1877 19.8557 63.2739C19.8557 63.4032 19.8126 63.4463 19.7695 63.4463Z" fill="#ABABB6"/>
<path d="M32.0516 67.7558L25.4151 64.4376C25.0272 64.2221 24.5532 64.2652 24.1653 64.4807C23.7775 64.6961 23.562 65.1271 23.562 65.558C23.562 66.0321 23.8206 66.5061 24.2946 66.7216L30.9312 70.0398C31.1035 70.126 31.319 70.1691 31.4914 70.1691C31.7069 70.1691 31.9654 70.0829 32.1809 69.9537C32.5688 69.7382 32.7842 69.3072 32.7842 68.8763C32.7842 68.4454 32.5257 67.9713 32.0516 67.7558ZM31.7069 69.2641C31.6638 69.3072 31.4914 69.3934 31.2759 69.2641L24.6394 65.9459C24.5101 65.8597 24.4239 65.7304 24.4239 65.558C24.4239 65.3425 24.5532 65.2133 24.6394 65.2133C24.6825 65.1702 24.7687 65.1271 24.8548 65.1271C24.8979 65.1271 24.9841 65.1271 25.0272 65.1702L31.6638 68.4885C31.7931 68.5746 31.8792 68.7039 31.8792 68.8763C31.9223 69.1349 31.7931 69.2641 31.7069 69.2641Z" fill="#ABABB6"/>
<path d="M42.1788 72.7977L35.6284 69.5225C35.2405 69.307 34.7665 69.3501 34.3786 69.5656C33.9908 69.7811 33.7753 70.212 33.7753 70.643C33.7753 71.117 34.0339 71.5911 34.5079 71.8065L41.0583 75.0817C41.2307 75.1679 41.4461 75.211 41.6185 75.211C41.834 75.211 42.0926 75.1248 42.308 74.9955C42.6959 74.78 42.9114 74.3491 42.9114 73.9182C42.9114 73.4872 42.6097 73.0563 42.1788 72.7977ZM41.834 74.3491C41.7909 74.3922 41.6185 74.4784 41.4031 74.3491L34.8527 71.0739C34.7234 70.9877 34.6372 70.8584 34.6372 70.6861C34.6372 70.4706 34.7665 70.3413 34.8527 70.3413C34.8958 70.2982 34.982 70.2551 35.0682 70.2551C35.1113 70.2551 35.1974 70.2551 35.2405 70.2982L41.7909 73.5734C41.9202 73.6596 42.0064 73.7889 42.0064 73.9612C42.0495 74.1767 41.8771 74.306 41.834 74.3491Z" fill="#ABABB6"/>
<path d="M39.2914 38.3654C40.1533 38.3654 40.7998 37.9345 40.7998 37.3311C40.7998 36.7278 40.1533 36.2969 39.2914 36.2969C38.4296 36.2969 37.7831 36.7278 37.7831 37.3311C37.7831 37.9345 38.4296 38.3654 39.2914 38.3654ZM39.2914 37.2019C39.5931 37.2019 39.8086 37.288 39.8948 37.3742C39.8086 37.4604 39.5931 37.5466 39.2914 37.5466C38.9898 37.5466 38.7743 37.4604 38.6881 37.3742C38.7312 37.288 38.9467 37.2019 39.2914 37.2019Z" fill="#ABABB6"/>
<path d="M130.048 100.206L123.541 103.481C123.239 103.653 123.024 103.955 123.024 104.3C123.024 104.602 123.196 104.903 123.455 105.076C123.584 105.162 123.757 105.205 123.929 105.205C124.058 105.205 124.187 105.162 124.317 105.119L130.824 101.844C131.126 101.671 131.341 101.369 131.341 101.025C131.341 100.723 131.169 100.421 130.91 100.249C130.652 100.077 130.307 100.077 130.048 100.206ZM130.479 101.068L123.972 104.343L123.929 104.3C123.929 104.3 123.929 104.257 123.972 104.257L130.522 100.982C130.479 100.982 130.479 101.025 130.479 101.068C130.479 101.068 130.479 101.025 130.479 101.068Z" fill="#ABABB6"/>
<path d="M155.776 87.8374C155.517 87.665 155.173 87.665 154.914 87.7943L148.752 90.8971C148.45 91.0695 148.234 91.3711 148.234 91.7159C148.234 92.0176 148.407 92.3192 148.665 92.4916C148.795 92.5778 148.967 92.6209 149.139 92.6209C149.269 92.6209 149.398 92.5778 149.527 92.5347L155.69 89.4319C155.991 89.2595 156.207 88.9579 156.207 88.6131C156.207 88.2683 156.034 87.9667 155.776 87.8374ZM155.345 88.6131L149.182 91.7159L149.398 92.1038L149.139 91.6728C149.139 91.6728 149.139 91.6297 149.182 91.6297L155.388 88.5269C155.345 88.57 155.345 88.57 155.345 88.6131Z" fill="#ABABB6"/>
<path d="M141.21 94.5174L138.236 96.0258C137.848 96.1981 137.633 96.586 137.633 97.0169C137.633 97.4048 137.848 97.7495 138.15 97.965C138.322 98.0943 138.538 98.1374 138.71 98.1374C138.883 98.1374 139.055 98.0943 139.227 98.0081L142.201 96.4998C142.589 96.3274 142.804 95.9396 142.804 95.5086C142.804 95.1208 142.589 94.776 142.287 94.5605C141.942 94.3882 141.555 94.3451 141.21 94.5174ZM141.942 95.5086C141.942 95.5948 141.899 95.681 141.813 95.7241L138.84 97.2324C138.753 97.2755 138.624 97.2324 138.624 97.2324C138.581 97.2324 138.495 97.1462 138.495 97.0169C138.495 96.9307 138.538 96.8445 138.624 96.8015L141.598 95.2931C141.641 95.2931 141.684 95.25 141.684 95.25C141.727 95.25 141.77 95.2931 141.813 95.2931C141.856 95.3362 141.942 95.3793 141.942 95.5086Z" fill="#ABABB6"/>
<path d="M133.884 98.9132C133.841 99.1717 133.927 99.4734 134.099 99.6458C134.228 99.8181 134.401 99.8612 134.616 99.8612C135.047 99.8612 135.392 99.5165 135.435 98.9994C135.478 98.7408 135.392 98.4391 135.22 98.2667C135.09 98.0944 134.918 98.0513 134.703 98.0513C134.272 98.0513 133.927 98.4391 133.884 98.9132Z" fill="#ABABB6"/>
<path d="M144.313 93.6988C144.27 93.9574 144.356 94.259 144.528 94.4314C144.657 94.6038 144.83 94.6469 145.045 94.6469C145.476 94.6469 145.821 94.3021 145.864 93.785C145.907 93.5264 145.821 93.2248 145.649 93.0524C145.519 92.88 145.347 92.8369 145.132 92.8369C144.744 92.88 144.356 93.2248 144.313 93.6988Z" fill="#ABABB6"/>
<path d="M80.576 73.6596L84.0236 73.8319L86.5661 74.6507C86.6092 74.6507 86.6523 74.6507 86.6954 74.6507C86.8247 74.6507 86.954 74.6076 87.0402 74.4784C87.1695 74.3491 87.1695 74.1767 87.0833 74.0043L85.575 70.9446L85.5319 70.9015C85.5319 70.8584 85.4888 70.8584 85.4888 70.8153C85.4457 70.7722 85.4457 70.7722 85.4026 70.7722L85.3595 70.7291C85.3164 70.7291 85.3164 70.7291 85.2733 70.686C85.2302 70.686 85.2302 70.686 85.1871 70.686C85.144 70.686 85.144 70.686 85.1009 70.686C85.0578 70.686 85.0578 70.686 85.0147 70.686L80.4467 72.7546C80.2743 72.8408 80.1451 73.0131 80.1882 73.2286C80.2313 73.5303 80.4036 73.6596 80.576 73.6596ZM84.7131 73.1424L85.1871 72.1513L85.8766 73.4872L84.7131 73.1424ZM84.2821 72.022L83.8512 72.927L82.4291 72.8839L84.2821 72.022Z" fill="#ABABB6"/>
<path d="M78.2919 78.0553C79.4985 78.0553 80.5759 77.6243 81.093 76.9779L82.4721 76.5039C82.6444 76.4608 82.7737 76.2453 82.7737 76.0729C82.7737 75.8574 82.6013 75.7282 82.429 75.6851L81.2654 75.4696C80.8345 74.6939 79.6709 74.1768 78.2919 74.1768C76.525 74.1768 75.146 75.0386 75.146 76.116C75.146 77.1934 76.525 78.0553 78.2919 78.0553ZM78.2919 75.0386C79.4985 75.0386 80.4035 75.5127 80.5328 75.9867C80.5759 76.0729 80.619 76.1591 80.7052 76.2022C80.619 76.2453 80.5328 76.2884 80.4897 76.3746C80.2311 76.7624 79.4554 77.1503 78.2919 77.1503C76.9991 77.1503 76.0079 76.59 76.0079 76.0729C76.0079 75.5558 76.9991 75.0386 78.2919 75.0386Z" fill="#ABABB6"/>
<path d="M62.9502 38.5808C62.864 38.3653 62.6055 38.2791 62.39 38.4084L33.6029 52.8882C33.3874 52.9743 33.3012 53.2329 33.4305 53.4484C33.5167 53.5777 33.646 53.7069 33.8183 53.7069C33.9045 53.7069 33.9476 53.7069 33.9907 53.6638L62.7778 39.1841C62.9933 39.0548 63.0795 38.7962 62.9502 38.5808Z" fill="white"/>
<path d="M28.9056 53.4482C26.5354 53.4482 24.6393 54.5256 24.6393 55.8184C24.6393 57.1113 26.5354 58.1886 28.9056 58.1886C31.2758 58.1886 33.172 57.1113 33.172 55.8184C33.172 54.5256 31.2758 53.4482 28.9056 53.4482Z" fill="white"/>
<path d="M91.6512 89.4313C94.174 89.4313 96.2192 88.293 96.2192 86.8888C96.2192 85.4845 94.174 84.3462 91.6512 84.3462C89.1284 84.3462 87.0832 85.4845 87.0832 86.8888C87.0832 88.293 89.1284 89.4313 91.6512 89.4313Z" fill="#E1DFE6"/>
<path d="M71.8277 78.615C69.199 77.4946 67.82 79.3476 70.2763 80.2095C71.6123 80.6835 73.336 80.6404 74.672 80.425C75.1891 79.6924 75.4477 78.7012 74.8013 77.9255C73.5946 76.4172 70.147 76.9774 71.8277 78.615Z" fill="#E1DFE6"/>
<path d="M207.963 52.4571C207.791 49.6128 206.886 47.4581 205.421 46.1653C205.378 46.1222 205.378 46.0791 205.334 46.0791C205.291 46.036 205.248 46.036 205.205 45.9929C203.094 44.3553 198.267 41.8989 193.613 39.5718C189.433 37.4602 185.166 35.3055 183.012 33.7971C177.625 30.0479 163.059 19.2312 160.43 16.3008C156.939 12.4223 154.138 11.9913 150.777 12.5516C150.13 12.6808 148.407 12.8101 145.907 11.819C143.494 10.8709 140.176 11.4742 135.995 13.672C134.358 13.0687 132.203 12.293 130.91 11.7759C130.781 11.7328 130.652 11.6897 130.522 11.6466C127.075 10.3537 123.713 10.1383 118.413 13.0687C116.086 12.0775 113.759 11.0864 111.733 10.1814C111.475 10.0521 85.6611 -1.15248 82.2997 0.0972605C80.8776 0.614394 79.714 2.20889 79.4124 4.10505C79.0245 6.47525 79.9726 8.75925 81.998 10.3968C84.0666 12.0775 88.8501 14.4908 94.4093 17.292C97.0811 18.6279 99.9684 20.0931 102.726 21.5583C101.994 22.1616 100.787 23.1097 99.4944 24.144C94.754 28.0656 94.5385 28.5396 94.4093 28.7982C94.1507 29.3584 93.9783 30.4789 94.2369 31.5993C94.4954 32.7629 95.4004 34.7021 98.5032 35.09C98.9773 35.1331 99.4513 35.1762 99.9253 35.1762C102.77 35.1762 105.614 34.0988 109.148 31.6855C109.665 32.4612 110.785 33.711 112.681 34.3143C113.414 34.5298 114.19 34.659 115.008 34.659C116.818 34.659 118.844 34.0557 121.042 32.8922C124.791 35.6933 127.247 38.1066 128.497 40.3044C129.574 42.2006 130.135 44.0536 130.048 45.4757C129.962 45.9498 128.497 47.889 126.73 48.6217C124.92 49.3543 119.361 50.5609 114.103 50.8626C112.811 50.9487 111.302 51.035 109.708 51.2504L63.2088 28.0225C58.5977 25.7385 53.1247 25.7385 48.5136 28.0656L8.90978 48.0614C8.90978 48.0614 8.86668 48.0614 8.86668 48.1045H8.82359C8.04789 48.4924 7.31528 49.0095 6.71195 49.6559C6.41029 49.9576 6.15173 50.3454 5.89316 50.6902C4.8158 52.414 4.51413 54.5256 5.07436 56.4648C5.63459 58.4041 6.92742 59.9555 8.73739 60.8605L17.4856 65.213L105.485 109.169C107.812 110.333 110.354 110.893 112.897 110.893C115.439 110.893 118.025 110.29 120.352 109.126L145.002 96.672C145.045 96.672 145.088 96.6289 145.131 96.6289L157.887 90.2078L159.74 89.2598C162.24 88.01 163.791 85.4674 163.791 82.6663C163.791 79.9082 162.326 77.4949 159.87 76.2883L159.827 76.2452L153.104 72.8838C155.129 72.8838 157.37 72.7546 159.74 72.496C168.92 71.4617 169.48 71.6772 176.418 74.0474C177.194 74.306 178.056 74.6076 179.047 74.9524C180.124 75.2971 181.072 75.6419 181.977 75.9436L183.184 76.3745C186.502 77.495 188.657 78.1845 190.596 78.1845C192.277 78.1845 193.828 77.6673 195.768 76.4607C195.811 76.4176 195.854 76.3745 195.897 76.3314C200.292 73.5303 204.429 67.7987 206.584 61.2052C207.705 58.1024 208.136 55.0427 207.963 52.4571ZM98.7618 33.7971C96.9949 33.5817 95.9176 32.7629 95.6159 31.2977C95.4004 30.3927 95.5728 29.5739 95.7021 29.3584C95.7883 29.2291 96.3916 28.4965 100.442 25.1352C101.951 23.8854 103.416 22.7219 104.062 22.2047C105.398 22.9373 106.691 23.6269 107.898 24.3595C109.665 25.3937 111.302 26.3849 112.811 27.2899C111.475 28.4103 110.268 29.4015 109.104 30.2203C104.924 33.1507 101.865 34.185 98.7618 33.7971ZM113.198 33.0645C111.604 32.5474 110.699 31.5131 110.268 30.9098C111.388 30.091 112.595 29.0999 113.888 28.0225C116.215 29.4877 118.24 30.8236 119.964 32.0303C117.379 33.3231 115.095 33.6679 113.198 33.0645ZM162.628 82.6663C162.628 84.9934 161.335 87.0619 159.266 88.0962L157.37 89.0443L144.701 95.4223C144.657 95.4223 144.614 95.4654 144.571 95.4654L119.878 107.963C115.612 110.117 110.483 110.117 106.174 108.006L18.1751 64.0495L9.42691 59.6969C7.9186 58.9643 6.88433 57.6715 6.41029 56.1201C5.93625 54.5256 6.19482 52.7587 7.09981 51.3797C7.31528 51.078 7.53075 50.7764 7.74623 50.5178C8.26336 50.0007 8.82359 49.5697 9.47 49.225C9.47 49.225 9.5131 49.225 9.5131 49.1819H9.55619L49.16 29.186C53.3833 27.0313 58.4684 27.0313 62.6917 29.1429L107.596 51.5521C107.424 51.5952 107.251 51.6383 107.079 51.6814C106.605 51.7676 106.131 51.8968 105.743 52.0261C105.054 52.2416 104.364 52.4571 103.718 52.7156C103.502 52.8018 103.287 52.888 103.071 52.9742C102.554 53.1897 102.037 53.4482 101.606 53.7068C101.434 53.793 101.304 53.8792 101.132 54.0085C100.96 54.0947 100.83 54.2239 100.701 54.3101C100.572 54.3963 100.399 54.5256 100.27 54.6118C100.27 54.6118 100.227 54.6549 100.184 54.6549C100.098 54.7411 99.9684 54.8273 99.9253 54.8704C99.753 54.9996 99.5806 55.172 99.4513 55.3013C99.322 55.4306 99.2358 55.5168 99.0635 55.6891C99.0204 55.7322 99.0204 55.7753 98.9773 55.7753C98.8911 55.8615 98.8049 55.9908 98.7187 56.077C98.5894 56.2063 98.5032 56.3787 98.417 56.5079C98.3308 56.6372 98.2447 56.7665 98.1585 56.8958C98.1154 56.982 98.0723 57.0251 98.0292 57.1113C97.9861 57.1974 97.943 57.2836 97.8999 57.3698C97.8568 57.4129 97.8568 57.456 97.8568 57.4991C97.8568 57.5422 97.8137 57.5853 97.8137 57.6284C97.7706 57.7146 97.7275 57.7577 97.7275 57.8008C97.6844 57.887 97.6413 58.0163 97.5982 58.1024C97.5552 58.1455 97.5551 58.2317 97.5551 58.2748C97.5121 58.4041 97.469 58.4903 97.4259 58.6196C97.3828 58.7919 97.2966 58.9643 97.2535 59.1367C97.1242 59.6107 97.038 60.0417 96.9518 60.4295C96.9087 60.6019 96.8656 60.8174 96.8656 60.9898C96.8225 61.1621 96.8225 61.3345 96.8225 61.5069C96.8225 61.7224 96.7794 61.8947 96.7794 62.0671C96.7794 62.1964 96.7794 62.3257 96.7794 62.4981C96.8225 62.8859 96.8656 63.2307 96.9518 63.5754C96.9949 63.7047 96.9949 63.7909 97.038 63.8771C97.1242 64.0495 97.1673 64.265 97.2535 64.3942C97.2966 64.4373 97.2966 64.4804 97.3397 64.5235C97.3828 64.5666 97.4259 64.6528 97.469 64.6959C97.512 64.739 97.5552 64.8252 97.5982 64.8683C97.5982 64.8683 97.5982 64.9114 97.6413 64.9114L97.7275 64.9976C97.7706 65.0407 97.8137 65.0837 97.8137 65.1268L97.8568 65.1699C97.943 65.2561 97.9861 65.2992 98.0723 65.3854C98.1154 65.4285 98.2016 65.4716 98.2447 65.5578C98.3308 65.6009 98.3739 65.644 98.417 65.6871C98.5032 65.7302 98.5894 65.8164 98.6325 65.8595C98.7187 65.9025 98.8049 65.9456 98.848 65.9887C99.1065 66.118 99.3651 66.2473 99.6237 66.3335C99.7099 66.3766 99.8391 66.4197 99.8822 66.4197C99.9684 66.4197 100.012 66.4628 100.098 66.4628L100.184 66.5059C100.83 66.6351 101.563 66.7213 102.425 66.7644C102.597 66.7644 102.726 66.7644 102.942 66.7644C102.985 66.7644 102.985 66.7644 103.028 66.7644H103.804C104.924 66.7644 106.26 66.6782 107.898 66.549C109.622 66.4197 111.69 66.2473 114.147 66.1611C116.689 66.0749 119.706 66.1611 123.196 66.4628C124.058 66.549 124.834 66.6351 125.61 66.7213C125.868 66.7644 126.127 66.7644 126.342 66.8075L126.687 66.8506C126.946 66.8937 127.204 66.8937 127.463 66.9368L129.402 67.1954C129.531 67.1954 129.661 67.2385 129.747 67.2385C130.178 67.3247 130.566 67.3678 130.953 67.4539C131.686 67.5832 132.419 67.7125 133.151 67.8849C133.324 67.928 133.496 67.9711 133.668 68.0142C133.97 68.1004 134.315 68.1435 134.616 68.2296C134.918 68.3158 135.177 68.3589 135.435 68.4451C135.737 68.5313 136.039 68.6175 136.297 68.7037L136.513 68.7899C136.685 68.833 136.9 68.9192 137.073 68.9622C137.245 69.0053 137.418 69.0915 137.59 69.1346C138.021 69.307 138.409 69.4363 138.753 69.5656H138.797C139.012 69.6518 139.184 69.7379 139.4 69.8241C139.486 69.8672 139.615 69.9103 139.702 69.9534C140.003 70.0827 140.305 70.2551 140.607 70.3844C141.21 70.686 141.727 70.9015 142.244 71.117L142.373 71.1601C142.503 71.2032 142.589 71.2463 142.718 71.2894C143.02 71.4186 143.365 71.5048 143.709 71.6341C143.839 71.6772 144.011 71.7203 144.183 71.7634H144.27C144.442 71.8065 144.614 71.8496 144.83 71.9358C144.83 71.9358 144.83 71.9358 144.873 71.9358C144.873 71.9358 144.873 71.9358 144.916 71.9358C145.088 71.9789 145.218 72.022 145.39 72.0651L145.692 72.1512C146.123 72.2374 146.51 72.3236 146.898 72.3667L147.071 72.4098C147.243 72.4529 147.459 72.4529 147.631 72.496C147.674 72.496 147.717 72.496 147.717 72.496H147.76C147.976 72.5391 148.191 72.5391 148.364 72.5822C148.665 72.6253 148.967 72.6684 149.269 72.6684C149.484 72.6684 149.656 72.7115 149.872 72.7115L159.266 77.3657C161.421 78.443 162.628 80.3823 162.628 82.6663ZM205.464 60.8174C203.352 67.3247 199.258 72.9269 195.035 75.4264C194.949 75.4695 194.862 75.5126 194.776 75.5557C193.613 76.2021 192.449 76.6331 191.329 76.8054C191.329 76.8054 191.329 76.8054 191.286 76.8054C189.389 76.9778 187.321 76.3314 183.701 75.0817L182.494 74.6507C181.589 74.3491 180.641 74.0043 179.564 73.6596C178.616 73.3148 177.711 73.0562 176.935 72.7546C169.911 70.3413 169.178 70.0827 159.697 71.1601C156.207 71.5479 153.061 71.6341 150.389 71.4617C150.346 71.4617 150.346 71.4617 150.303 71.4617H150.26C150.044 71.4617 149.786 71.4186 149.57 71.4186C149.269 71.3755 148.967 71.3755 148.708 71.3324L147.976 71.2463C147.803 71.2032 147.631 71.2032 147.415 71.1601L147.243 71.117C146.812 71.0308 146.467 70.9877 146.123 70.9015L145.39 70.7291C145.218 70.686 145.002 70.6429 144.83 70.5567H144.787C144.657 70.5136 144.485 70.4706 144.313 70.4275C143.968 70.3413 143.666 70.212 143.365 70.1258C143.235 70.0827 143.063 70.0396 142.934 69.9534C142.46 69.781 141.942 69.5225 141.382 69.2639C141.081 69.0915 140.736 68.9622 140.434 68.7899L140.305 68.7468C140.219 68.7037 140.176 68.6606 140.089 68.6606C139.874 68.5744 139.658 68.4882 139.443 68.402H139.4C139.184 68.3158 138.969 68.2296 138.753 68.1435C138.581 68.1004 138.409 68.0142 138.236 67.928C137.848 67.7987 137.418 67.6263 136.9 67.497C136.599 67.4108 136.34 67.3247 135.995 67.2385C135.995 67.2385 135.995 67.2385 135.952 67.2385C135.694 67.1523 135.392 67.0661 135.09 67.023C134.789 66.9368 134.444 66.8506 134.142 66.8075C133.97 66.7644 133.798 66.7213 133.625 66.6782C133.453 66.6351 133.237 66.5921 133.022 66.549C132.462 66.4197 131.945 66.3335 131.384 66.2473C131.04 66.2042 130.695 66.118 130.307 66.0749L130.135 66.0318C130.005 66.0318 129.876 65.9887 129.747 65.9887L128.799 65.8595C128.626 65.8164 128.454 65.8164 128.282 65.7733L127.764 65.7302C127.506 65.6871 127.247 65.644 126.946 65.644L126.601 65.6009C126.342 65.5578 126.084 65.5578 125.825 65.5147C125.049 65.4285 124.231 65.3423 123.369 65.2561C116.387 64.6528 111.475 65.0406 107.855 65.3423C106.217 65.4716 104.967 65.6009 103.89 65.5578H103.071C103.028 65.5578 103.028 65.5578 102.985 65.5578C102.856 65.5578 102.683 65.5578 102.554 65.5578C101.735 65.5147 101.089 65.4285 100.572 65.2992L100.486 65.2561C100.442 65.2561 100.399 65.2561 100.356 65.213C100.313 65.213 100.227 65.1699 100.141 65.1268C99.9253 65.0406 99.7099 64.9976 99.5375 64.8683C99.4944 64.8683 99.4513 64.8252 99.4082 64.7821C99.3651 64.739 99.322 64.739 99.2358 64.6528C99.1927 64.6097 99.1496 64.6097 99.1066 64.5666L99.0635 64.5235C99.0204 64.5235 99.0204 64.4804 98.9773 64.4373C98.9342 64.3942 98.8911 64.3511 98.848 64.3511L98.6756 64.1357C98.6325 64.0926 98.6325 64.0926 98.5894 64.0495L98.5463 64.0064C98.5463 63.9633 98.5032 63.9633 98.5032 63.9202C98.5032 63.8771 98.4601 63.834 98.4601 63.834C98.417 63.7047 98.3309 63.6185 98.2878 63.4893C98.2447 63.4031 98.2447 63.36 98.2016 63.2738C98.1154 63.0152 98.0723 62.7566 98.0723 62.4981C98.0723 62.3688 98.0723 62.2826 98.0723 62.1533C98.0723 61.9809 98.0723 61.8517 98.0723 61.6793C98.0723 61.55 98.1154 61.4207 98.1154 61.2483C98.1154 61.119 98.1585 60.9467 98.2016 60.7743C98.2447 60.6019 98.2878 60.4295 98.3308 60.2141C98.3739 59.9986 98.417 59.7831 98.5032 59.5677C98.5463 59.4384 98.5894 59.266 98.6325 59.1367C98.6756 59.0505 98.6756 58.9643 98.7187 58.8781C98.7187 58.8781 98.7187 58.835 98.7618 58.835V58.792C98.7618 58.7489 98.8049 58.7489 98.8049 58.7058C98.848 58.6196 98.8911 58.5334 98.9342 58.4472C98.9342 58.4041 98.9773 58.361 98.9773 58.361V58.3179C99.0204 58.2748 99.0204 58.1886 99.0635 58.1455C99.0635 58.1455 99.0635 58.1024 99.1066 58.1024C99.1496 58.0593 99.1496 57.9732 99.1927 57.9301L99.2358 57.887C99.2358 57.8439 99.2789 57.8008 99.322 57.7146C99.3651 57.6284 99.4513 57.4991 99.5375 57.4129C99.6237 57.2836 99.7099 57.1544 99.8391 57.0251C99.9253 56.9389 99.9684 56.8527 100.055 56.7665L100.098 56.7234L100.184 56.6372C100.27 56.551 100.356 56.4218 100.486 56.3356C100.615 56.2063 100.744 56.077 100.917 55.9477C101.003 55.8615 101.046 55.8184 101.132 55.7753C101.132 55.7753 101.175 55.7322 101.218 55.7322C101.347 55.6461 101.434 55.5599 101.563 55.4737C101.692 55.3875 101.822 55.3013 101.951 55.2151C102.08 55.1289 102.209 55.0427 102.339 54.9996C102.339 54.9996 102.382 54.9996 102.382 54.9565C102.77 54.7411 103.201 54.5256 103.675 54.3101C103.718 54.3101 103.718 54.3101 103.761 54.267C103.976 54.1808 104.149 54.0947 104.364 54.0085C104.967 53.793 105.614 53.5775 106.26 53.362C106.648 53.2328 107.079 53.1466 107.51 53.0604C107.725 53.0173 107.941 52.9742 108.156 52.9311C108.587 52.8449 109.018 52.7587 109.449 52.7156C109.579 52.6725 109.751 52.6725 109.88 52.6294C111.518 52.414 113.069 52.2847 114.362 52.1985C119.835 51.8968 125.437 50.6471 127.377 49.8714C129.316 49.0957 131.427 46.7686 131.514 45.6481C131.6 44.4415 131.384 42.4591 129.79 39.7442C128.454 37.374 125.825 34.7883 121.817 31.8148C121.774 31.7717 121.731 31.7717 121.688 31.7286C118.456 29.3584 114.276 26.6866 108.587 23.3683C107.251 22.5926 105.829 21.8169 104.364 21.0412L104.321 20.9981C101.261 19.3605 98.0723 17.7229 95.0988 16.2577C89.6258 13.4996 84.8854 11.1294 82.903 9.49186C81.2223 8.15593 80.4466 6.25977 80.7483 4.40671C80.9638 2.98459 81.8257 1.77795 82.8168 1.3901C84.5406 0.743678 98.9342 6.0443 111.259 11.4311C119.059 14.8356 130.996 19.7914 131.126 19.8345C131.471 19.9638 131.815 19.8345 131.988 19.4898C132.117 19.145 131.988 18.8003 131.643 18.6279C131.557 18.5848 126.041 16.3008 120.05 13.7582C124.36 11.5604 127.161 11.819 130.178 12.9394C130.307 12.9825 130.436 13.0256 130.566 13.0687C131.901 13.5858 134.099 14.4046 135.78 15.008C135.866 15.0511 135.952 15.0941 136.039 15.0941C141.899 17.2489 142.072 17.2489 142.201 17.2489C142.546 17.2489 142.847 16.9472 142.847 16.6025C142.847 16.3008 142.632 16.0422 142.33 15.956C142.072 15.8698 140.176 15.2234 137.805 14.3184C141.081 12.767 143.752 12.3361 145.562 13.0687C148.277 14.1461 150.217 14.0599 151.122 13.8875C153.707 13.4566 156.164 13.3704 159.568 17.2058C162.455 20.4379 177.883 31.7717 182.365 34.9176C184.606 36.469 188.743 38.5806 193.139 40.7785C197.707 43.1056 202.447 45.4758 204.516 47.0703C205.809 48.1045 206.627 50.0438 206.8 52.5863C206.843 54.9996 206.412 57.8439 205.464 60.8174Z" fill="#1A1C2C"/>
<path d="M27.0957 82.1494L24.8117 80.8996C24.2084 80.5549 23.6913 80.0808 23.3896 79.4775L22.1399 77.1935C21.752 76.4609 20.7178 76.4609 20.2868 77.1935L19.0371 79.4775C18.6923 80.0808 18.2183 80.598 17.615 80.8996L15.3309 82.1494C14.5983 82.5372 14.5983 83.5715 15.3309 84.0024L17.615 85.2522C18.2183 85.5969 18.7354 86.071 19.0371 86.6743L20.2868 88.9583C20.6747 89.6909 21.7089 89.6909 22.1399 88.9583L23.3896 86.6743C23.7344 86.071 24.2084 85.5538 24.8117 85.2522L27.0957 84.0024C27.8284 83.5715 27.8284 82.5372 27.0957 82.1494Z" fill="#9BBA3B"/>
<path d="M11.7109 22.3341L10.0302 21.4291C9.59928 21.1705 9.21143 20.8258 8.95287 20.3517L8.04788 18.6711C7.74622 18.1539 6.97052 18.1539 6.66886 18.6711L5.76388 20.3517C5.50531 20.7827 5.16055 21.1705 4.68651 21.4291L3.00583 22.3341C2.4887 22.6357 2.4887 23.4114 3.00583 23.7131L4.68651 24.6181C5.11746 24.8767 5.50531 25.2214 5.76388 25.6955L6.66886 27.3761C6.97052 27.8933 7.74622 27.8933 8.04788 27.3761L8.95287 25.6955C9.21143 25.2645 9.55619 24.8767 10.0302 24.6181L11.7109 23.7131C12.2711 23.4114 12.2711 22.6357 11.7109 22.3341Z" fill="#9BBA3B"/>
<path d="M56.8309 14.9653L55.7966 14.4051C55.5381 14.2758 55.2795 14.0172 55.1502 13.7587L54.59 12.7244C54.4176 12.3796 53.9436 12.3796 53.7712 12.7244L53.211 13.7587C53.0817 14.0172 52.8231 14.2758 52.5646 14.4051L51.5303 14.9653C51.1855 15.1377 51.1855 15.6117 51.5303 15.7841L52.5646 16.3443C52.8231 16.4736 53.0817 16.7322 53.211 16.9907L53.7712 18.025C53.9436 18.3698 54.4176 18.3698 54.59 18.025L55.1502 16.9907C55.2795 16.7322 55.5381 16.4736 55.7966 16.3443L56.8309 15.7841C57.1757 15.6117 57.1757 15.1377 56.8309 14.9653Z" fill="#9BBA3B"/>
<path d="M3.73845 32.2461L3.04893 31.8582C2.87656 31.772 2.70418 31.5997 2.61799 31.4273L2.23014 30.7378C2.10086 30.5223 1.79919 30.5223 1.66991 30.7378L1.28206 31.4273C1.19587 31.5997 1.0235 31.772 0.851119 31.8582L0.161604 32.2461C-0.0538681 32.3754 -0.0538681 32.677 0.161604 32.8063L0.851119 33.1942C1.0235 33.2803 1.19587 33.4527 1.28206 33.6251L1.66991 34.3146C1.79919 34.5301 2.10086 34.5301 2.23014 34.3146L2.61799 33.6251C2.70418 33.4527 2.87656 33.2803 3.04893 33.1942L3.73845 32.8063C3.95392 32.677 3.95392 32.3754 3.73845 32.2461Z" fill="#9BBA3B"/>
<path d="M75.4045 10.9572L71.6984 12.7241C71.2674 12.9396 71.3105 13.586 71.7845 13.7153L72.7757 13.9738C68.8541 18.3264 66.3546 25.6955 66.2684 33.5818C66.1823 42.4162 69.0265 49.8715 74.0685 53.9655C74.1547 54.0517 74.2409 54.0517 74.3271 54.0517C74.4564 54.0517 74.5857 54.0086 74.6719 53.8793C74.8012 53.7069 74.8011 53.4053 74.6288 53.276C69.7591 49.3113 67.0441 42.1145 67.1303 33.5387C67.2165 25.7386 69.6729 18.5418 73.5083 14.3617L74.0685 15.5683C74.284 15.9993 74.9304 15.9562 75.0597 15.4821L76.094 11.5174C76.2664 11.1296 75.7923 10.7848 75.4045 10.9572Z" fill="#9BBA3B"/>
</svg>
