<svg width="48" height="42" viewBox="0 0 48 42" fill="none" xmlns="http://www.w3.org/2000/svg">
<path d="M43.2375 9H7.5C6.67125 9 6 8.32875 6 7.5C6 6.67125 6.67125 6 7.5 6H43.5C44.3288 6 45 5.32875 45 4.5C45 2.01469 42.9853 0 40.5 0H6C2.68594 0 0 2.68594 0 6V36C0 39.3141 2.68594 42 6 42H43.2375C45.8644 42 48 39.9816 48 37.5V13.5C48 11.0184 45.8644 9 43.2375 9ZM39 28.5C37.3434 28.5 36 27.1566 36 25.5C36 23.8434 37.3434 22.5 39 22.5C40.6566 22.5 42 23.8434 42 25.5C42 27.1566 40.6566 28.5 39 28.5Z" fill="white"/>
</svg>
